# Created by Kenney (www.kenney.nl)

mtllib awning3.mtl

g mergedBlocks

v 0.1 0.8 -0.1
v 0.1 0.8 0.5
v 0.1 0.7 -0.1
v 0.1 0.7 -0.003999998
v 0.1 0.7 1.490109E-09
v 0.1 0.7 0.096
v 0.1 0.7 0.1
v 0.1 0.7 0.196
v 0.1 0.7 0.2
v 0.1 0.7 0.296
v 0.1 0.7 0.3
v 0.1 0.7 0.396
v 0.1 0.7 0.4
v 0.1 0.7 0.496
v 0.1 0.7 0.5
v 0.1 0.6854802 0.1017037
v 0.1 0.67195 0.1066987
v 0.1 0.6603313 0.1146447
v 0.1 0.6514159 0.125
v 0.1 0.6458116 0.137059
v 0.1 0.6439 0.15
v 0.1 0.6458116 0.1629409
v 0.1 0.6514159 0.175
v 0.1 0.6603313 0.1853553
v 0.1 0.67195 0.1933013
v 0.1 0.6854802 0.1982963
v 0.1 0.6854802 0.4017037
v 0.1 0.67195 0.4066987
v 0.1 0.6603313 0.4146447
v 0.1 0.6514159 0.425
v 0.1 0.6458116 0.437059
v 0.1 0.6439 0.45
v 0.1 0.6458116 0.462941
v 0.1 0.6514159 0.475
v 0.1 0.6603313 0.4853553
v 0.1 0.67195 0.4933013
v 0.1 0.6854802 0.4982963
v 0.1 0.6854802 0.2017037
v 0.1 0.67195 0.2066987
v 0.1 0.6603313 0.2146447
v 0.1 0.6514159 0.225
v 0.1 0.6458116 0.2370591
v 0.1 0.6439 0.25
v 0.1 0.6458116 0.2629409
v 0.1 0.6514159 0.275
v 0.1 0.6603313 0.2853553
v 0.1 0.67195 0.2933013
v 0.1 0.6854802 0.2982963
v 0.1 0.6854802 0.3017037
v 0.1 0.67195 0.3066987
v 0.1 0.6603313 0.3146446
v 0.1 0.6514159 0.325
v 0.1 0.6458116 0.3370591
v 0.1 0.6439 0.35
v 0.1 0.6458116 0.3629409
v 0.1 0.6514159 0.375
v 0.1 0.6603313 0.3853553
v 0.1 0.67195 0.3933012
v 0.1 0.6854802 0.3982963
v -0.5 0.7 -0.5
v -0.5 1 -0.5
v -0.5 0.7 -0.1
v -0.5 1 -0.4
v -0.5 0.8 -0.1
v 0.5 1 0.5
v 0.4 1 -0.4
v 0.5 1 -0.5
v 0.4 1 0.5
v 0.5 0.7 0.5
v 0.5 0.7 -0.5
v 0.09600002 0.7 -0.1
v 2.384163E-08 0.7 -0.1
v -0.003999976 0.7 -0.1
v -0.09999997 0.7 -0.1
v -0.104 0.7 -0.1
v -0.2 0.7 -0.1
v -0.204 0.7 -0.1
v -0.3 0.7 -0.1
v -0.304 0.7 -0.1
v -0.356 0.7 -0.1
v -0.4 0.7 -0.1
v -0.404 0.7 -0.1
v -0.1017037 0.6854802 -0.1
v -0.1982963 0.6854802 -0.1
v -0.1066987 0.67195 -0.1
v -0.1933012 0.67195 -0.1
v -0.1146446 0.6603313 -0.1
v -0.1853553 0.6603313 -0.1
v -0.125 0.6514159 -0.1
v -0.175 0.6514159 -0.1
v -0.137059 0.6458116 -0.1
v -0.1629409 0.6458116 -0.1
v -0.15 0.6439 -0.1
v -0.4017037 0.6854802 -0.1
v -0.4982963 0.6854802 -0.1
v -0.4066987 0.67195 -0.1
v -0.4933012 0.67195 -0.1
v -0.4146447 0.6603313 -0.1
v -0.4853553 0.6603313 -0.1
v -0.425 0.6514159 -0.1
v -0.475 0.6514159 -0.1
v -0.437059 0.6458116 -0.1
v -0.4629409 0.6458116 -0.1
v -0.45 0.6439 -0.1
v 0.1 0.6854802 0.09829629
v 0.1 0.67195 0.09330127
v 0.1 0.6603313 0.08535534
v 0.1 0.6514159 0.075
v 0.1 0.6458116 0.06294096
v 0.1 0.6439 0.05
v 0.1 0.6458116 0.03705905
v 0.1 0.6514159 0.025
v 0.1 0.6603313 0.01464466
v 0.1 0.67195 0.006698731
v 0.1 0.6854802 0.00170371
v 0.1 0.6854802 -0.001703707
v 0.1 0.67195 -0.006698728
v 0.1 0.6603313 -0.01464466
v 0.1 0.6514159 -0.025
v 0.1 0.6458116 -0.03705904
v 0.1 0.6439 -0.05
v 0.1 0.6458116 -0.06294095
v 0.1 0.6514159 -0.075
v 0.1 0.6603313 -0.08535534
v 0.1 0.67195 -0.09330127
v 0.1 0.6854802 -0.09829628
v -0.09829626 0.6854802 -0.1
v -0.001703685 0.6854802 -0.1
v -0.006698706 0.67195 -0.1
v -0.09330124 0.67195 -0.1
v -0.01464464 0.6603313 -0.1
v -0.08535531 0.6603313 -0.1
v -0.02499998 0.6514159 -0.1
v -0.07499997 0.6514159 -0.1
v -0.03705902 0.6458116 -0.1
v -0.06294093 0.6458116 -0.1
v -0.04999997 0.6439 -0.1
v 0.001703733 0.6854802 -0.1
v 0.09829631 0.6854802 -0.1
v 0.0933013 0.67195 -0.1
v 0.006698754 0.67195 -0.1
v 0.08535536 0.6603313 -0.1
v 0.01464469 0.6603313 -0.1
v 0.07500003 0.6514159 -0.1
v 0.02500002 0.6514159 -0.1
v 0.06294097 0.6458116 -0.1
v 0.03705907 0.6458116 -0.1
v 0.05000002 0.6439 -0.1
v -0.3982963 0.6854802 -0.1
v -0.3017037 0.6854802 -0.1
v -0.3066987 0.67195 -0.1
v -0.3933012 0.67195 -0.1
v -0.3146446 0.6603313 -0.1
v -0.3853553 0.6603313 -0.1
v -0.325 0.6514159 -0.1
v -0.375 0.6514159 -0.1
v -0.337059 0.6458116 -0.1
v -0.3629409 0.6458116 -0.1
v -0.35 0.6439 -0.1
v -0.2982963 0.6854802 -0.1
v -0.2017037 0.6854802 -0.1
v -0.2066987 0.67195 -0.1
v -0.2933012 0.67195 -0.1
v -0.2146446 0.6603313 -0.1
v -0.2853553 0.6603313 -0.1
v -0.225 0.6514159 -0.1
v -0.275 0.6514159 -0.1
v -0.237059 0.6458116 -0.1
v -0.2629409 0.6458116 -0.1
v -0.25 0.6439 -0.1

vn -1 0 0
vn 0 1 0
vn -0.5547002 0.8320503 0
vn 0 -1 0
vn 1 0 0
vn 0 0 1
vn 0 0.8320503 0.5547002
vn 0 0 -1

vt -0.1 0.8
vt 0.5 0.8
vt -0.1 0.7
vt -0.003999998 0.7
vt 1.490109E-09 0.7
vt 0.096 0.7
vt 0.1 0.7
vt 0.196 0.7
vt 0.2 0.7
vt 0.296 0.7
vt 0.3 0.7
vt 0.396 0.7
vt 0.4 0.7
vt 0.496 0.7
vt 0.5 0.7
vt 0.1017037 0.6854802
vt 0.1066987 0.67195
vt 0.1146447 0.6603313
vt 0.125 0.6514159
vt 0.137059 0.6458116
vt 0.15 0.6439
vt 0.1629409 0.6458116
vt 0.175 0.6514159
vt 0.1853553 0.6603313
vt 0.1933013 0.67195
vt 0.1982963 0.6854802
vt 0.4017037 0.6854802
vt 0.4066987 0.67195
vt 0.4146447 0.6603313
vt 0.425 0.6514159
vt 0.437059 0.6458116
vt 0.45 0.6439
vt 0.462941 0.6458116
vt 0.475 0.6514159
vt 0.4853553 0.6603313
vt 0.4933013 0.67195
vt 0.4982963 0.6854802
vt 0.2017037 0.6854802
vt 0.2066987 0.67195
vt 0.2146447 0.6603313
vt 0.225 0.6514159
vt 0.2370591 0.6458116
vt 0.25 0.6439
vt 0.2629409 0.6458116
vt 0.275 0.6514159
vt 0.2853553 0.6603313
vt 0.2933013 0.67195
vt 0.2982963 0.6854802
vt 0.3017037 0.6854802
vt 0.3066987 0.67195
vt 0.3146446 0.6603313
vt 0.325 0.6514159
vt 0.3370591 0.6458116
vt 0.35 0.6439
vt 0.3629409 0.6458116
vt 0.375 0.6514159
vt 0.3853553 0.6603313
vt 0.3933012 0.67195
vt 0.3982963 0.6854802
vt -0.5 0.7
vt -0.5 1
vt -0.4 1
vt -0.5 0.5
vt -0.4 -0.4
vt -0.5 -0.5
vt 0.5 -0.5
vt 0.5 -0.4
vt -0.4 0.5
vt -0.1 -0.1
vt -0.1 0.5
vt -0.1 -0.5
vt -0.1 0.1
vt 0.1 0.7
vt 0.1 0.7
vt 0.5 0.5
vt -0.09600002 0.1
vt -2.384163E-08 0.1
vt 0.003999976 0.1
vt 0.09999997 0.1
vt 0.104 0.1
vt 0.2 0.1
vt 0.204 0.1
vt 0.3 0.1
vt 0.304 0.1
vt 0.356 0.1
vt 0.4 0.1
vt 0.404 0.1
vt 0.5 0.1
vt 0.5 1
vt 0.09600002 0.7
vt 0.1 0.8
vt 2.384163E-08 0.7
vt -0.003999976 0.7
vt -0.09999997 0.7
vt -0.104 0.7
vt -0.2 0.7
vt -0.204 0.7
vt -0.3 0.7
vt -0.304 0.7
vt -0.4 0.7
vt -0.404 0.7
vt -0.5 0.8
vt -0.356 0.7
vt -0.1017037 0.6854802
vt -0.1982963 0.6854802
vt -0.1066987 0.67195
vt -0.1933012 0.67195
vt -0.1146446 0.6603313
vt -0.1853553 0.6603313
vt -0.125 0.6514159
vt -0.175 0.6514159
vt -0.137059 0.6458116
vt -0.1629409 0.6458116
vt -0.15 0.6439
vt -0.4017037 0.6854802
vt -0.4982963 0.6854802
vt -0.4066987 0.67195
vt -0.4933012 0.67195
vt -0.4146447 0.6603313
vt -0.4853553 0.6603313
vt -0.425 0.6514159
vt -0.475 0.6514159
vt -0.437059 0.6458116
vt -0.4629409 0.6458116
vt -0.45 0.6439
vt 0.5 -0.1
vt 0.1 0.8
vt 0.4 1
vt -0.1017037 0.6854802
vt -0.196 0.7
vt -0.1066987 0.67195
vt -0.1146447 0.6603313
vt -0.125 0.6514159
vt -0.137059 0.6458116
vt -0.15 0.6439
vt -0.1629409 0.6458116
vt -0.175 0.6514159
vt -0.1853553 0.6603313
vt -0.1933013 0.67195
vt -0.1982963 0.6854802
vt -0.2 0.7
vt -0.096 0.7
vt -0.09829629 0.6854802
vt -0.09330127 0.67195
vt -0.08535534 0.6603313
vt -0.075 0.6514159
vt -0.06294096 0.6458116
vt -0.05 0.6439
vt -0.03705905 0.6458116
vt -0.025 0.6514159
vt -0.01464466 0.6603313
vt -0.006698731 0.67195
vt -0.00170371 0.6854802
vt -1.490109E-09 0.7
vt -0.2017037 0.6854802
vt -0.296 0.7
vt -0.2066987 0.67195
vt -0.2146447 0.6603313
vt -0.225 0.6514159
vt -0.2370591 0.6458116
vt -0.25 0.6439
vt -0.2629409 0.6458116
vt -0.275 0.6514159
vt -0.2853553 0.6603313
vt -0.2933013 0.67195
vt -0.2982963 0.6854802
vt -0.3 0.7
vt -0.3017037 0.6854802
vt -0.396 0.7
vt -0.3066987 0.67195
vt -0.3146446 0.6603313
vt -0.325 0.6514159
vt -0.3370591 0.6458116
vt -0.35 0.6439
vt -0.3629409 0.6458116
vt -0.375 0.6514159
vt -0.3853553 0.6603313
vt -0.3933012 0.67195
vt -0.3982963 0.6854802
vt -0.4 0.7
vt -0.496 0.7
vt -0.45 0.6439
vt -0.462941 0.6458116
vt -0.4853553 0.6603313
vt -0.4933013 0.67195
vt 0.00170371 0.6854802
vt 0.006698731 0.67195
vt 0.01464466 0.6603313
vt 0.025 0.6514159
vt 0.03705905 0.6458116
vt 0.05 0.6439
vt 0.06294096 0.6458116
vt 0.075 0.6514159
vt 0.08535534 0.6603313
vt 0.09330127 0.67195
vt 0.09829629 0.6854802
vt -0.001703707 0.6854802
vt -0.006698728 0.67195
vt -0.01464466 0.6603313
vt -0.025 0.6514159
vt -0.03705904 0.6458116
vt -0.05 0.6439
vt -0.06294095 0.6458116
vt -0.09829628 0.6854802
vt 0.09829628 0.6854802
vt 0.003999998 0.7
vt 0.06294095 0.6458116
vt 0.05 0.6439
vt 0.03705904 0.6458116
vt 0.025 0.6514159
vt 0.01464466 0.6603313
vt 0.006698728 0.67195
vt 0.001703707 0.6854802
vt 0.137059 0.6458116
vt 0.1629409 0.6458116
vt 0.15 0.6439
vt 0.175 0.6514159
vt 0.125 0.6514159
vt 0.1853553 0.6603313
vt 0.1146446 0.6603313
vt 0.1933012 0.67195
vt 0.1066987 0.67195
vt 0.1982963 0.6854802
vt 0.1017037 0.6854802
vt 0.2 0.7
vt 0.09999997 0.7
vt 0.09829626 0.6854802
vt 0.001703685 0.6854802
vt 0.006698706 0.67195
vt 0.09330124 0.67195
vt 0.01464464 0.6603313
vt 0.08535531 0.6603313
vt 0.02499998 0.6514159
vt 0.07499997 0.6514159
vt 0.03705902 0.6458116
vt 0.06294093 0.6458116
vt 0.04999997 0.6439
vt -2.384163E-08 0.7
vt -0.001703733 0.6854802
vt -0.09829631 0.6854802
vt -0.0933013 0.67195
vt -0.006698754 0.67195
vt -0.08535536 0.6603313
vt -0.01464469 0.6603313
vt -0.07500003 0.6514159
vt -0.02500002 0.6514159
vt -0.06294097 0.6458116
vt -0.03705907 0.6458116
vt -0.05000002 0.6439
vt -0.1 0.7
vt -0.001703685 0.6854802
vt -0.09829626 0.6854802
vt -0.006698706 0.67195
vt -0.09330124 0.67195
vt -0.01464464 0.6603313
vt -0.08535531 0.6603313
vt -0.02499998 0.6514159
vt -0.07499997 0.6514159
vt -0.03705902 0.6458116
vt -0.06294093 0.6458116
vt -0.04999997 0.6439
vt 0.09829631 0.6854802
vt 0.001703733 0.6854802
vt 0.0933013 0.67195
vt 0.006698754 0.67195
vt 0.08535536 0.6603313
vt 0.01464469 0.6603313
vt 0.07500003 0.6514159
vt 0.02500002 0.6514159
vt 0.06294097 0.6458116
vt 0.03705907 0.6458116
vt 0.05000002 0.6439
vt 0.4629409 0.6458116
vt 0.45 0.6439
vt 0.4853553 0.6603313
vt 0.4933012 0.67195
vt 0.4 0.7
vt 0.3982963 0.6854802
vt 0.3017037 0.6854802
vt 0.3066987 0.67195
vt 0.3933012 0.67195
vt 0.3853553 0.6603313
vt 0.375 0.6514159
vt 0.337059 0.6458116
vt 0.35 0.6439
vt 0.356 0.7
vt 0.3 0.7
vt 0.2982963 0.6854802
vt 0.2017037 0.6854802
vt 0.2066987 0.67195
vt 0.2933012 0.67195
vt 0.2146446 0.6603313
vt 0.2853553 0.6603313
vt 0.225 0.6514159
vt 0.275 0.6514159
vt 0.237059 0.6458116
vt 0.2629409 0.6458116
vt 0.25 0.6439
vt -0.3017037 0.6854802
vt -0.3982963 0.6854802
vt -0.3066987 0.67195
vt -0.3933012 0.67195
vt -0.3853553 0.6603313
vt -0.375 0.6514159
vt -0.337059 0.6458116
vt -0.35 0.6439
vt -0.2017037 0.6854802
vt -0.2982963 0.6854802
vt -0.2066987 0.67195
vt -0.2933012 0.67195
vt -0.2146446 0.6603313
vt -0.2853553 0.6603313
vt -0.225 0.6514159
vt -0.275 0.6514159
vt -0.237059 0.6458116
vt -0.2629409 0.6458116
vt -0.25 0.6439

usemtl foliage

f 3/3/1 2/2/1 1/1/1
f 2/2/1 3/3/1 4/4/1
f 2/2/1 4/4/1 5/5/1
f 2/2/1 5/5/1 6/6/1
f 2/2/1 6/6/1 7/7/1
f 2/2/1 7/7/1 8/8/1
f 2/2/1 8/8/1 9/9/1
f 2/2/1 9/9/1 10/10/1
f 2/2/1 10/10/1 11/11/1
f 2/2/1 11/11/1 12/12/1
f 2/2/1 12/12/1 13/13/1
f 2/2/1 13/13/1 14/14/1
f 2/2/1 14/14/1 15/15/1
f 16/16/1 8/8/1 7/7/1
f 8/8/1 16/16/1 17/17/1
f 8/8/1 17/17/1 18/18/1
f 8/8/1 18/18/1 19/19/1
f 8/8/1 19/19/1 20/20/1
f 8/8/1 20/20/1 21/21/1
f 8/8/1 21/21/1 22/22/1
f 8/8/1 22/22/1 23/23/1
f 8/8/1 23/23/1 24/24/1
f 8/8/1 24/24/1 25/25/1
f 8/8/1 25/25/1 26/26/1
f 8/8/1 26/26/1 9/9/1
f 27/27/1 14/14/1 13/13/1
f 14/14/1 27/27/1 28/28/1
f 14/14/1 28/28/1 29/29/1
f 14/14/1 29/29/1 30/30/1
f 14/14/1 30/30/1 31/31/1
f 14/14/1 31/31/1 32/32/1
f 14/14/1 32/32/1 33/33/1
f 14/14/1 33/33/1 34/34/1
f 14/14/1 34/34/1 35/35/1
f 14/14/1 35/35/1 36/36/1
f 14/14/1 36/36/1 37/37/1
f 14/14/1 37/37/1 15/15/1
f 38/38/1 10/10/1 9/9/1
f 10/10/1 38/38/1 39/39/1
f 10/10/1 39/39/1 40/40/1
f 10/10/1 40/40/1 41/41/1
f 10/10/1 41/41/1 42/42/1
f 10/10/1 42/42/1 43/43/1
f 10/10/1 43/43/1 44/44/1
f 10/10/1 44/44/1 45/45/1
f 10/10/1 45/45/1 46/46/1
f 10/10/1 46/46/1 47/47/1
f 10/10/1 47/47/1 48/48/1
f 10/10/1 48/48/1 11/11/1
f 49/49/1 12/12/1 11/11/1
f 12/12/1 49/49/1 50/50/1
f 12/12/1 50/50/1 51/51/1
f 12/12/1 51/51/1 52/52/1
f 12/12/1 52/52/1 53/53/1
f 12/12/1 53/53/1 54/54/1
f 12/12/1 54/54/1 55/55/1
f 12/12/1 55/55/1 56/56/1
f 12/12/1 56/56/1 57/57/1
f 12/12/1 57/57/1 58/58/1
f 12/12/1 58/58/1 59/59/1
f 12/12/1 59/59/1 13/13/1
f 62/3/1 61/61/1 60/60/1
f 61/61/1 62/3/1 63/62/1
f 63/62/1 62/3/1 64/1/1
f 67/65/2 66/64/2 65/63/2
f 66/64/2 67/65/2 61/66/2
f 66/64/2 61/66/2 63/67/2
f 68/68/2 65/63/2 66/64/2
f 1/69/3 68/68/3 66/64/3
f 68/68/3 1/69/3 2/70/3
f 15/71/4 70/63/4 69/65/4
f 70/63/4 15/71/4 3/72/4
f 3/74/4 15/73/4 13/73/4
f 3/74/4 13/73/4 7/73/4
f 3/74/4 7/73/4 5/73/4
f 3/74/4 5/73/4 4/73/4
f 13/73/4 15/73/4 14/73/4
f 5/73/4 7/73/4 6/73/4
f 3/72/4 60/75/4 70/63/4
f 60/75/4 3/72/4 71/76/4
f 60/75/4 71/76/4 72/77/4
f 60/75/4 72/77/4 73/78/4
f 60/75/4 73/78/4 74/79/4
f 60/75/4 74/79/4 75/80/4
f 60/75/4 75/80/4 76/81/4
f 60/75/4 76/81/4 77/82/4
f 60/75/4 77/82/4 78/83/4
f 60/75/4 78/83/4 79/84/4
f 60/75/4 79/84/4 80/85/4
f 60/75/4 80/85/4 81/86/4
f 60/75/4 81/86/4 82/87/4
f 60/75/4 82/87/4 62/88/4
f 7/73/4 13/73/4 11/73/4
f 11/73/4 13/73/4 12/73/4
f 7/73/4 11/73/4 9/73/4
f 9/73/4 11/73/4 10/73/4
f 7/73/4 9/73/4 8/73/4
f 67/89/5 69/60/5 70/15/5
f 69/60/5 67/89/5 65/61/5
f 1/91/6 71/90/6 3/74/6
f 71/90/6 1/91/6 72/92/6
f 72/92/6 1/91/6 73/93/6
f 73/93/6 1/91/6 74/94/6
f 74/94/6 1/91/6 75/95/6
f 75/95/6 1/91/6 76/96/6
f 76/96/6 1/91/6 77/97/6
f 77/97/6 1/91/6 78/98/6
f 78/98/6 1/91/6 79/99/6
f 79/99/6 1/91/6 81/100/6
f 81/100/6 1/91/6 82/101/6
f 64/102/6 82/101/6 1/91/6
f 82/101/6 64/102/6 62/60/6
f 81/100/6 80/103/6 79/99/6
f 76/96/6 83/104/6 74/94/6
f 84/105/6 83/104/6 76/96/6
f 84/105/6 85/106/6 83/104/6
f 86/107/6 85/106/6 84/105/6
f 86/107/6 87/108/6 85/106/6
f 88/109/6 87/108/6 86/107/6
f 88/109/6 89/110/6 87/108/6
f 90/111/6 89/110/6 88/109/6
f 90/111/6 91/112/6 89/110/6
f 92/113/6 91/112/6 90/111/6
f 91/112/6 92/113/6 93/114/6
f 62/60/6 94/115/6 81/100/6
f 95/116/6 94/115/6 62/60/6
f 95/116/6 96/117/6 94/115/6
f 97/118/6 96/117/6 95/116/6
f 97/118/6 98/119/6 96/117/6
f 99/120/6 98/119/6 97/118/6
f 99/120/6 100/121/6 98/119/6
f 101/122/6 100/121/6 99/120/6
f 101/122/6 102/123/6 100/121/6
f 103/124/6 102/123/6 101/122/6
f 102/123/6 103/124/6 104/125/6
f 63/67/7 1/69/7 66/64/7
f 1/69/7 63/67/7 64/126/7
f 61/89/8 70/60/8 60/15/8
f 70/60/8 61/89/8 67/61/8
f 65/89/6 15/73/6 69/15/6
f 15/73/6 65/89/6 2/127/6
f 2/127/6 65/89/6 68/128/6
f 7/3/5 8/130/5 16/129/5
f 17/131/5 16/129/5 8/130/5
f 18/132/5 17/131/5 8/130/5
f 19/133/5 18/132/5 8/130/5
f 20/134/5 19/133/5 8/130/5
f 21/135/5 20/134/5 8/130/5
f 22/136/5 21/135/5 8/130/5
f 23/137/5 22/136/5 8/130/5
f 24/138/5 23/137/5 8/130/5
f 25/139/5 24/138/5 8/130/5
f 26/140/5 25/139/5 8/130/5
f 9/141/5 26/140/5 8/130/5
f 7/3/5 105/143/5 6/142/5
f 105/143/5 106/144/5 6/142/5
f 106/144/5 107/145/5 6/142/5
f 107/145/5 108/146/5 6/142/5
f 108/146/5 109/147/5 6/142/5
f 109/147/5 110/148/5 6/142/5
f 110/148/5 111/149/5 6/142/5
f 111/149/5 112/150/5 6/142/5
f 112/150/5 113/151/5 6/142/5
f 113/151/5 114/152/5 6/142/5
f 114/152/5 115/153/5 6/142/5
f 5/154/5 6/142/5 115/153/5
f 9/141/5 10/156/5 38/155/5
f 39/157/5 38/155/5 10/156/5
f 40/158/5 39/157/5 10/156/5
f 41/159/5 40/158/5 10/156/5
f 42/160/5 41/159/5 10/156/5
f 43/161/5 42/160/5 10/156/5
f 44/162/5 43/161/5 10/156/5
f 45/163/5 44/162/5 10/156/5
f 46/164/5 45/163/5 10/156/5
f 47/165/5 46/164/5 10/156/5
f 48/166/5 47/165/5 10/156/5
f 11/167/5 48/166/5 10/156/5
f 11/167/5 12/169/5 49/168/5
f 50/170/5 49/168/5 12/169/5
f 51/171/5 50/170/5 12/169/5
f 52/172/5 51/171/5 12/169/5
f 53/173/5 52/172/5 12/169/5
f 54/174/5 53/173/5 12/169/5
f 55/175/5 54/174/5 12/169/5
f 56/176/5 55/175/5 12/169/5
f 57/177/5 56/176/5 12/169/5
f 58/178/5 57/177/5 12/169/5
f 59/179/5 58/178/5 12/169/5
f 13/180/5 59/179/5 12/169/5
f 13/180/5 14/181/5 27/115/5
f 28/117/5 27/115/5 14/181/5
f 29/119/5 28/117/5 14/181/5
f 30/121/5 29/119/5 14/181/5
f 31/123/5 30/121/5 14/181/5
f 32/182/5 31/123/5 14/181/5
f 33/183/5 32/182/5 14/181/5
f 34/122/5 33/183/5 14/181/5
f 35/184/5 34/122/5 14/181/5
f 36/185/5 35/184/5 14/181/5
f 37/116/5 36/185/5 14/181/5
f 15/60/5 37/116/5 14/181/5
f 115/186/1 6/6/1 5/5/1
f 6/6/1 115/186/1 114/187/1
f 6/6/1 114/187/1 113/188/1
f 6/6/1 113/188/1 112/189/1
f 6/6/1 112/189/1 111/190/1
f 6/6/1 111/190/1 110/191/1
f 6/6/1 110/191/1 109/192/1
f 6/6/1 109/192/1 108/193/1
f 6/6/1 108/193/1 107/194/1
f 6/6/1 107/194/1 106/195/1
f 6/6/1 106/195/1 105/196/1
f 6/6/1 105/196/1 7/7/1
f 4/4/1 116/197/1 5/5/1
f 4/4/1 117/198/1 116/197/1
f 4/4/1 118/199/1 117/198/1
f 4/4/1 119/200/1 118/199/1
f 4/4/1 120/201/1 119/200/1
f 4/4/1 121/202/1 120/201/1
f 4/4/1 122/203/1 121/202/1
f 4/4/1 123/146/1 122/203/1
f 4/4/1 124/145/1 123/146/1
f 4/4/1 125/144/1 124/145/1
f 4/4/1 126/204/1 125/144/1
f 126/204/1 4/4/1 3/3/1
f 3/7/5 4/206/5 126/205/5
f 125/195/5 126/205/5 4/206/5
f 124/194/5 125/195/5 4/206/5
f 123/193/5 124/194/5 4/206/5
f 122/207/5 123/193/5 4/206/5
f 121/208/5 122/207/5 4/206/5
f 120/209/5 121/208/5 4/206/5
f 119/210/5 120/209/5 4/206/5
f 118/211/5 119/210/5 4/206/5
f 117/212/5 118/211/5 4/206/5
f 116/213/5 117/212/5 4/206/5
f 5/154/5 116/213/5 4/206/5
f 93/216/8 92/215/8 91/214/8
f 90/217/8 91/214/8 92/215/8
f 89/218/8 91/214/8 90/217/8
f 88/219/8 89/218/8 90/217/8
f 87/220/8 89/218/8 88/219/8
f 86/221/8 87/220/8 88/219/8
f 85/222/8 87/220/8 86/221/8
f 84/223/8 85/222/8 86/221/8
f 83/224/8 85/222/8 84/223/8
f 76/225/8 83/224/8 84/223/8
f 74/226/8 83/224/8 76/225/8
f 75/95/8 74/94/8 76/96/8
f 74/226/8 128/228/8 127/227/8
f 128/228/8 129/229/8 127/227/8
f 127/227/8 129/229/8 130/230/8
f 129/229/8 131/231/8 130/230/8
f 130/230/8 131/231/8 132/232/8
f 131/231/8 133/233/8 132/232/8
f 132/232/8 133/233/8 134/234/8
f 133/233/8 135/235/8 134/234/8
f 134/234/8 135/235/8 136/236/8
f 137/237/8 136/236/8 135/235/8
f 72/238/8 128/228/8 74/226/8
f 73/93/8 72/92/8 74/94/8
f 72/238/8 139/240/8 138/239/8
f 139/240/8 140/241/8 138/239/8
f 138/239/8 140/241/8 141/242/8
f 140/241/8 142/243/8 141/242/8
f 141/242/8 142/243/8 143/244/8
f 142/243/8 144/245/8 143/244/8
f 143/244/8 144/245/8 145/246/8
f 144/245/8 146/247/8 145/246/8
f 145/246/8 146/247/8 147/248/8
f 148/249/8 147/248/8 146/247/8
f 3/250/8 139/240/8 72/238/8
f 71/90/8 3/74/8 72/92/8
f 76/96/6 74/94/6 75/95/6
f 127/252/6 128/251/6 74/94/6
f 127/252/6 129/253/6 128/251/6
f 130/254/6 129/253/6 127/252/6
f 130/254/6 131/255/6 129/253/6
f 132/256/6 131/255/6 130/254/6
f 132/256/6 133/257/6 131/255/6
f 134/258/6 133/257/6 132/256/6
f 134/258/6 135/259/6 133/257/6
f 136/260/6 135/259/6 134/258/6
f 135/259/6 136/260/6 137/261/6
f 74/94/6 128/251/6 72/92/6
f 74/94/6 72/92/6 73/93/6
f 138/263/6 139/262/6 72/92/6
f 138/263/6 140/264/6 139/262/6
f 141/265/6 140/264/6 138/263/6
f 141/265/6 142/266/6 140/264/6
f 143/267/6 142/266/6 141/265/6
f 143/267/6 144/268/6 142/266/6
f 145/269/6 144/268/6 143/267/6
f 145/269/6 146/270/6 144/268/6
f 147/271/6 146/270/6 145/269/6
f 146/270/6 147/271/6 148/272/6
f 72/92/6 139/262/6 3/74/6
f 72/92/6 3/74/6 71/90/6
f 104/274/8 103/273/8 102/31/8
f 101/34/8 102/31/8 103/273/8
f 100/30/8 102/31/8 101/34/8
f 99/275/8 100/30/8 101/34/8
f 98/29/8 100/30/8 99/275/8
f 97/276/8 98/29/8 99/275/8
f 96/28/8 98/29/8 97/276/8
f 95/37/8 96/28/8 97/276/8
f 94/27/8 96/28/8 95/37/8
f 62/15/8 94/27/8 95/37/8
f 81/277/8 94/27/8 62/15/8
f 82/101/8 81/100/8 62/60/8
f 81/277/8 150/279/8 149/278/8
f 150/279/8 151/280/8 149/278/8
f 149/278/8 151/280/8 152/281/8
f 151/280/8 153/51/8 152/281/8
f 152/281/8 153/51/8 154/282/8
f 153/51/8 155/52/8 154/282/8
f 154/282/8 155/52/8 156/283/8
f 155/52/8 157/284/8 156/283/8
f 156/283/8 157/284/8 158/55/8
f 159/285/8 158/55/8 157/284/8
f 80/286/8 150/279/8 81/277/8
f 150/279/8 80/286/8 78/287/8
f 79/99/8 78/98/8 80/103/8
f 78/287/8 161/289/8 160/288/8
f 161/289/8 162/290/8 160/288/8
f 160/288/8 162/290/8 163/291/8
f 162/290/8 164/292/8 163/291/8
f 163/291/8 164/292/8 165/293/8
f 164/292/8 166/294/8 165/293/8
f 165/293/8 166/294/8 167/295/8
f 166/294/8 168/296/8 167/295/8
f 167/295/8 168/296/8 169/297/8
f 170/298/8 169/297/8 168/296/8
f 76/225/8 161/289/8 78/287/8
f 77/97/8 76/96/8 78/98/8
f 62/60/6 81/100/6 82/101/6
f 149/300/6 150/299/6 81/100/6
f 149/300/6 151/301/6 150/299/6
f 152/302/6 151/301/6 149/300/6
f 152/302/6 153/171/6 151/301/6
f 154/303/6 153/171/6 152/302/6
f 154/303/6 155/172/6 153/171/6
f 156/304/6 155/172/6 154/303/6
f 156/304/6 157/305/6 155/172/6
f 158/175/6 157/305/6 156/304/6
f 157/305/6 158/175/6 159/306/6
f 81/100/6 150/299/6 80/103/6
f 78/98/6 80/103/6 150/299/6
f 80/103/6 78/98/6 79/99/6
f 160/308/6 161/307/6 78/98/6
f 160/308/6 162/309/6 161/307/6
f 163/310/6 162/309/6 160/308/6
f 163/310/6 164/311/6 162/309/6
f 165/312/6 164/311/6 163/310/6
f 165/312/6 166/313/6 164/311/6
f 167/314/6 166/313/6 165/312/6
f 167/314/6 168/315/6 166/313/6
f 169/316/6 168/315/6 167/314/6
f 168/315/6 169/316/6 170/317/6
f 78/98/6 161/307/6 76/96/6
f 78/98/6 76/96/6 77/97/6

