# Created by Kenney (www.kenney.nl)

mtllib block8.mtl

g mergedBlocks

v -0.5 0 -0.5
v -0.5 0.2 -0.5
v -0.5 4.060752E-16 6.100152E-14
v -0.5 0.2 6.136247E-14
v 0.5 0 0.5
v 0.5 0 -0.5
v 4.89095E-14 4.060752E-16 0.5
v 0.5 0.2 -0.5
v 0.5 0.2 0.5
v 4.872902E-14 0.2 0.5
v 4.872902E-14 1 0.5
v -0.5 1 6.136247E-14
v 0.5 1 0.5
v -0.5 1 -0.5
v 0.5 1 -0.5

vn -1 0 0
vn 0 -1 0
vn 0 0 -1
vn 1 0 0
vn 0 0 1
vn -0.7071068 0 0.7071068
vn 0 1 0

vt -0.5 0
vt -0.5 0.2
vt 6.100152E-14 4.060752E-16
vt 6.136247E-14 0.2
vt -0.5 -0.5
vt -0.5 0.5
vt -4.89095E-14 -0.5
vt 0.5 0.5
vt 0.5 -6.100152E-14
vt 0.5 0
vt 0.5 0.2
vt 4.89095E-14 4.060752E-16
vt 4.872902E-14 0.2
vt -0.5 4.060752E-16
vt 4.872902E-14 1
vt -0.5 1
vt 0.5 1
vt 6.136247E-14 1
vt -4.872902E-14 0.5
vt 0.5 -0.5
vt 0.5 6.136247E-14

usemtl bricksDark

f 3/3/1 2/2/1 1/1/1
f 2/2/1 3/3/1 4/4/1
f 7/7/2 6/6/2 5/5/2
f 6/6/2 7/7/2 1/8/2
f 1/8/2 7/7/2 3/9/2
f 2/11/3 6/1/3 1/10/3
f 6/1/3 2/11/3 8/2/3
f 9/2/4 6/10/4 8/11/4
f 6/10/4 9/2/4 5/1/4
f 9/11/5 7/12/5 5/10/5
f 7/12/5 9/11/5 10/13/5
f 10/13/6 3/14/6 7/12/6
f 3/14/6 10/13/6 4/2/6

usemtl bricks

f 11/15/6 4/2/6 10/13/6
f 4/2/6 11/15/6 12/16/6
f 13/17/5 10/13/5 9/11/5
f 10/13/5 13/17/5 11/15/5
f 4/4/1 14/16/1 2/2/1
f 14/16/1 4/4/1 12/18/1
f 15/5/7 11/19/7 13/6/7
f 11/19/7 15/5/7 14/20/7
f 11/19/7 14/20/7 12/21/7
f 14/17/3 8/2/3 2/11/3
f 8/2/3 14/17/3 15/16/3
f 13/16/4 8/11/4 15/17/4
f 8/11/4 13/16/4 9/2/4

