# Created by Kenney (www.kenney.nl)

mtllib block9.mtl

g mergedBlocks

v -0.5 0.2 -0.5
v -0.5 1 -0.5
v -0.5 0.2 -2.887646E-15
v -0.5 1 -2.887646E-15
v -0.1294095 0.2 0.4829629
v -0.1294095 1 0.4829629
v -2.52669E-15 0.2 0.5
v -2.52669E-15 1 0.5
v 0.5 1 7.219114E-16
v 0.5 0.2 7.219114E-16
v 0.4829629 1 0.1294095
v 0.4829629 0.2 0.1294095
v 0.3535534 0.2 0.3535534
v 0.25 0.2 0.4330127
v 0.3535534 1 0.3535534
v 0.25 1 0.4330127
v 0.5 1 -0.5
v 0.4330127 1 0.25
v 0.1294095 1 0.4829629
v -0.25 1 0.4330127
v -0.3535534 1 0.3535534
v -0.4330127 1 0.25
v -0.4829629 1 0.1294095
v 0.1294095 0.2 0.4829629
v -0.25 0.2 0.4330127
v 0.4330127 0.2 0.25
v -0.4829629 0.2 0.1294095
v -0.3535534 0.2 0.3535534
v 0.5 0.2 -0.5
v -0.4330127 0.2 0.25
v 0.25 2.48157E-16 0.4330127
v 0.1294095 2.48157E-16 0.4829629
v 0.5 0 -0.5
v 0.5 2.48157E-16 7.219114E-16
v 0.4330127 2.48157E-16 0.25
v 0.3535534 2.48157E-16 0.3535534
v -0.1294095 1.240785E-16 0.4829629
v -2.52669E-15 1.579181E-16 0.5
v 0.4829629 2.48157E-16 0.1294095
v -0.4330127 1.240785E-16 0.25
v -0.3535534 1.240785E-16 0.3535534
v -0.4829629 1.240785E-16 0.1294095
v -0.5 0 -0.5
v -0.5 1.240785E-16 -2.887646E-15
v -0.25 1.240785E-16 0.4330127

vn -1 0 0
vn -0.9978589 0 0.06540313
vn -0.258819 0 0.9659258
vn 0 0 1
vn 0.9978589 0 0.06540313
vn 0.9659258 0 0.258819
vn 0.7071068 0 0.7071068
vn 0.5 0 0.8660254
vn 0 1 0
vn 0.258819 0 0.9659258
vn -0.5 0 0.8660254
vn 0.8660254 0 0.5
vn -0.9659258 0 0.258819
vn -0.7071068 0 0.7071068
vn 1 0 0
vn 0 0 -1
vn -0.8660254 0 0.5
vn 0 -1 0

vt -0.5 0.2
vt -0.5 1
vt -2.887646E-15 0.2
vt -2.887646E-15 1
vt -0.1294095 0.2
vt -0.1294095 1
vt -2.52669E-15 0.2
vt -2.52669E-15 1
vt -7.219114E-16 1
vt -7.219114E-16 0.2
vt 0.3535534 0.2
vt 0.25 0.2
vt 0.3535534 1
vt 0.25 1
vt -0.5 -0.5
vt -0.5 7.219114E-16
vt 0.5 -0.5
vt -0.4829629 0.1294095
vt -0.4330127 0.25
vt -0.3535534 0.3535534
vt -0.25 0.4330127
vt -0.1294095 0.4829629
vt 2.52669E-15 0.5
vt 0.1294095 0.4829629
vt 0.25 0.4330127
vt 0.3535534 0.3535534
vt 0.4330127 0.25
vt 0.4829629 0.1294095
vt 0.5 -2.887646E-15
vt 0.1294095 0.2
vt 0.1294095 1
vt -0.25 0.2
vt -0.25 1
vt -0.3535534 1
vt -0.3535534 0.2
vt 0.5 1
vt 0.5 0.2
vt 0.25 2.48157E-16
vt 0.1294095 2.48157E-16
vt 0.5 0
vt -7.219114E-16 2.48157E-16
vt -0.25 2.48157E-16
vt -0.3535534 2.48157E-16
vt 0.3535534 2.48157E-16
vt -0.1294095 1.240785E-16
vt -2.52669E-15 1.579181E-16
vt -0.1294095 2.48157E-16
vt 0.25 1.240785E-16
vt 0.3535534 1.240785E-16
vt 0.1294095 1.240785E-16
vt -0.5 0
vt -2.887646E-15 1.240785E-16
vt -0.25 1.240785E-16
vt -0.3535534 1.240785E-16
vt -0.5 0.5
vt 0.5 0.5
vt -0.5 -7.219114E-16
vt -0.4829629 -0.1294095
vt -0.4330127 -0.25
vt -0.3535534 -0.3535534
vt -0.25 -0.4330127
vt -0.1294095 -0.4829629
vt 2.52669E-15 -0.5
vt 0.1294095 -0.4829629
vt 0.25 -0.4330127
vt 0.3535534 -0.3535534
vt 0.4330127 -0.25
vt 0.4829629 -0.1294095
vt 0.5 2.887646E-15

usemtl bricks

f 3/3/2 2/2/1 1/1/1
f 2/2/1 3/3/2 4/4/2
f 7/7/4 6/6/3 5/5/3
f 6/6/3 7/7/4 8/8/4
f 11/6/6 10/10/5 9/9/5
f 10/10/5 11/6/6 12/5/6
f 15/13/7 14/12/8 13/11/7
f 14/12/8 15/13/7 16/14/8
f 2/17/9 9/16/9 17/15/9
f 9/16/9 2/17/9 11/18/9
f 11/18/9 2/17/9 18/19/9
f 18/19/9 2/17/9 15/20/9
f 15/20/9 2/17/9 16/21/9
f 16/21/9 2/17/9 19/22/9
f 19/22/9 2/17/9 8/23/9
f 8/23/9 2/17/9 6/24/9
f 6/24/9 2/17/9 20/25/9
f 20/25/9 2/17/9 21/26/9
f 21/26/9 2/17/9 22/27/9
f 22/27/9 2/17/9 23/28/9
f 23/28/9 2/17/9 4/29/9
f 16/14/8 24/30/10 14/12/8
f 24/30/10 16/14/8 19/31/10
f 6/6/3 25/32/11 5/5/3
f 25/32/11 6/6/3 20/33/11
f 15/34/7 26/32/12 18/33/12
f 26/32/12 15/34/7 13/35/7
f 27/30/13 4/4/2 3/3/2
f 4/4/2 27/30/13 23/31/13
f 20/33/11 28/35/14 25/32/11
f 28/35/14 20/33/11 21/34/14
f 18/33/12 12/5/6 11/6/6
f 12/5/6 18/33/12 26/32/12
f 9/9/5 29/37/15 17/36/15
f 29/37/15 9/9/5 10/10/5
f 2/36/16 29/1/16 1/37/16
f 29/1/16 2/36/16 17/2/16
f 30/12/17 23/31/13 27/30/13
f 23/31/13 30/12/17 22/14/17
f 28/11/14 22/14/17 30/12/17
f 22/14/17 28/11/14 21/13/14
f 24/30/10 8/8/4 7/7/4
f 8/8/4 24/30/10 19/31/10

usemtl bricksDark

f 14/12/8 32/39/10 31/38/8
f 32/39/10 14/12/8 24/30/10
f 10/10/5 33/40/15 29/37/15
f 33/40/15 10/10/5 34/41/5
f 13/35/7 35/42/12 26/32/12
f 35/42/12 13/35/7 36/43/7
f 13/11/7 31/38/8 36/44/7
f 31/38/8 13/11/7 14/12/8
f 38/46/4 5/5/3 37/45/3
f 5/5/3 38/46/4 7/7/4
f 26/32/12 39/47/6 12/5/6
f 39/47/6 26/32/12 35/42/12
f 41/49/14 30/12/17 40/48/17
f 30/12/17 41/49/14 28/11/14
f 40/48/17 27/30/13 42/50/13
f 27/30/13 40/48/17 30/12/17
f 43/51/1 3/3/2 1/1/1
f 3/3/2 43/51/1 44/52/2
f 25/32/11 41/54/14 45/53/11
f 41/54/14 25/32/11 28/35/14
f 5/5/3 45/53/11 37/45/3
f 45/53/11 5/5/3 25/32/11
f 32/39/10 7/7/4 38/46/4
f 7/7/4 32/39/10 24/30/10
f 1/37/16 33/51/16 43/40/16
f 33/51/16 1/37/16 29/1/16
f 12/5/6 34/41/5 10/10/5
f 34/41/5 12/5/6 39/47/6
f 34/57/18 43/56/18 33/55/18
f 43/56/18 34/57/18 39/58/18
f 43/56/18 39/58/18 35/59/18
f 43/56/18 35/59/18 36/60/18
f 43/56/18 36/60/18 31/61/18
f 43/56/18 31/61/18 32/62/18
f 43/56/18 32/62/18 38/63/18
f 43/56/18 38/63/18 37/64/18
f 43/56/18 37/64/18 45/65/18
f 43/56/18 45/65/18 41/66/18
f 43/56/18 41/66/18 40/67/18
f 43/56/18 40/67/18 42/68/18
f 43/56/18 42/68/18 44/69/18
f 42/50/13 3/3/2 44/52/2
f 3/3/2 42/50/13 27/30/13

