# Created by Kenney (www.kenney.nl)

mtllib building_block4.mtl

g mergedBlocks

v 0 0.2 -0.5
v 0.5 0.2 -0.5
v 0 1 -0.5
v 0.5 1 -0.5
v 0.5 1 -5.414336E-16
v 0.5 0.2 -5.414336E-16
v 0 0.2 -5.414336E-16
v 0 1 -5.414336E-16
v 0 -4.511947E-16 -0.5
v 0.5 -4.511947E-16 -0.5
v 0.5 0 -5.414336E-16
v 0 0 -5.414336E-16

vn 0 0 -1
vn 1 0 0
vn 0 0 1
vn -1 0 0
vn 0 1 0
vn 0 -1 0

vt 0 0.2
vt -0.5 0.2
vt 0 1
vt -0.5 1
vt 0.5 1
vt 0.5 0.2
vt 5.414336E-16 1
vt 5.414336E-16 0.2
vt -5.414336E-16 1
vt -5.414336E-16 0.2
vt -0.5 -0.5
vt -0.5 -5.414336E-16
vt 0 -0.5
vt 0 -5.414336E-16
vt 0 -4.511947E-16
vt -0.5 -4.511947E-16
vt 0.5 -4.511947E-16
vt 5.414336E-16 0
vt 0.5 0
vt 0 0
vt -5.414336E-16 0
vt -0.5 5.414336E-16
vt -0.5 0.5
vt 0 5.414336E-16
vt 0 0.5

usemtl bricks

f 3/3/1 2/2/1 1/1/1
f 2/2/1 3/3/1 4/4/1
f 5/7/2 2/6/2 4/5/2
f 2/6/2 5/7/2 6/8/2
f 5/5/3 7/1/3 6/6/3
f 7/1/3 5/5/3 8/3/3
f 1/2/4 8/9/4 3/4/4
f 8/9/4 1/2/4 7/10/4
f 3/13/5 5/12/5 4/11/5
f 5/12/5 3/13/5 8/14/5

usemtl bricksDark

f 1/1/1 10/16/1 9/15/1
f 10/16/1 1/1/1 2/2/1
f 2/6/2 11/18/2 10/17/2
f 11/18/2 2/6/2 6/8/2
f 6/6/3 12/20/3 11/19/3
f 12/20/3 6/6/3 7/1/3
f 12/21/4 1/2/4 9/16/4
f 1/2/4 12/21/4 7/10/4
f 12/24/6 10/23/6 11/22/6
f 10/23/6 12/24/6 9/25/6

