# Created by Kenney (www.kenney.nl)

mtllib building_block5.mtl

g mergedBlocks

v 0.5 0 0.5
v 0.5 0 -0.5
v -0.5 0 0.5
v -0.5 0 -0.5
v 0.5 0.2 -0.5
v 0.5 0.2 0.5
v -0.5 0.2 0.5
v -0.5 0.2 -0.5
v 0.5 0.5 -0.5
v 0.5 0.5 0.5
v -0.5 0.5 -0.5
v -0.5 0.5 0.5

vn 0 -1 0
vn 1 0 0
vn 0 0 1
vn -1 0 0
vn 0 0 -1
vn 0 1 0

vt -0.5 -0.5
vt -0.5 0.5
vt 0.5 -0.5
vt 0.5 0.5
vt 0.5 0.2
vt 0.5 0
vt -0.5 0.2
vt -0.5 0

usemtl bricksDark

f 3/3/1 2/2/1 1/1/1
f 2/2/1 3/3/1 4/4/1
f 6/7/2 2/6/2 5/5/2
f 2/6/2 6/7/2 1/8/2
f 6/5/3 3/8/3 1/6/3
f 3/8/3 6/5/3 7/7/3
f 3/6/4 8/7/4 4/8/4
f 8/7/4 3/6/4 7/5/4
f 8/5/5 2/8/5 4/6/5
f 2/8/5 8/5/5 5/7/5

usemtl bricks

f 11/3/6 10/2/6 9/1/6
f 10/2/6 11/3/6 12/4/6
f 10/2/2 5/5/2 9/4/2
f 5/5/2 10/2/2 6/7/2
f 11/4/5 5/7/5 8/5/5
f 5/7/5 11/4/5 9/2/5
f 7/5/4 11/2/4 8/7/4
f 11/2/4 7/5/4 12/4/4
f 10/4/3 7/7/3 6/5/3
f 7/7/3 10/4/3 12/2/3

