# Created by Kenney (www.kenney.nl)

mtllib building_door1.mtl

g mergedBlocks

v 0.1198059 2.255973E-17 -0.49
v 0.1198059 0.4685265 -0.49
v 0.1198059 2.255973E-17 -0.47
v 0.1198059 0.4685265 -0.48
v 0.1198059 0.5285265 -0.48
v 0.1198059 0.730648 -0.47
v 0.1198059 0.730648 -0.49
v 0.1198059 0.5285265 -0.49
v -0.1198059 0.5285265 -0.48
v -0.1198059 0.5285265 -0.49
v 0.163003 0.7738451 -0.47
v -0.163003 0.7738451 -0.47
v 0.163003 0.7738451 -0.5
v -0.163003 0.7738451 -0.5
v 0.163003 2.255973E-17 -0.5
v 0.163003 2.255973E-17 -0.47
v -0.1198059 0.730648 -0.47
v -0.1198059 0.730648 -0.49
v -0.163003 2.255973E-17 -0.47
v -0.1198059 2.255973E-17 -0.47
v -0.1198059 2.255973E-17 -0.49
v -0.163003 2.255973E-17 -0.5
v -0.1198059 0.4685265 -0.48
v -0.1198059 0.4685265 -0.49

vn -1 0 0
vn 0 1 0
vn 1 0 0
vn 0 -1 0
vn 0 0 1

vt -0.49 2.255973E-17
vt -0.49 0.4685265
vt -0.47 2.255973E-17
vt -0.48 0.4685265
vt -0.48 0.5285265
vt -0.47 0.730648
vt -0.49 0.730648
vt -0.49 0.5285265
vt -0.1198059 -0.48
vt 0.1198059 -0.48
vt -0.1198059 -0.49
vt 0.1198059 -0.49
vt -0.163003 -0.47
vt 0.163003 -0.47
vt -0.163003 -0.5
vt 0.163003 -0.5
vt 0.5 0.7738451
vt 0.5 2.255973E-17
vt 0.47 0.7738451
vt 0.47 2.255973E-17
vt -0.1198059 0.47
vt -0.1198059 0.49
vt 0.1198059 0.47
vt 0.1198059 0.49
vt 0.163003 2.255973E-17
vt 0.1198059 2.255973E-17
vt 0.163003 0.7738451
vt 0.1198059 0.730648
vt -0.1198059 0.730648
vt -0.163003 0.7738451
vt -0.163003 2.255973E-17
vt -0.1198059 2.255973E-17
vt 0.163003 0.47
vt 0.163003 0.5
vt -0.163003 0.5
vt -0.163003 0.47
vt 0.49 0.730648
vt 0.49 0.5285265
vt 0.47 0.730648
vt 0.48 0.5285265
vt 0.48 0.4685265
vt 0.49 2.255973E-17
vt 0.49 0.4685265
vt -0.5 2.255973E-17
vt -0.5 0.7738451
vt -0.47 0.7738451
vt -0.1198059 0.48
vt 0.1198059 0.48
vt 0.1198059 0.4685265
vt -0.1198059 0.4685265
vt 0.1198059 0.5285265
vt -0.1198059 0.5285265

usemtl metalLight

f 3/3/1 2/2/1 1/1/1
f 2/2/1 3/3/1 4/4/1
f 4/4/1 3/3/1 5/5/1
f 6/6/1 5/5/1 3/3/1
f 7/7/1 5/5/1 6/6/1
f 5/5/1 7/7/1 8/8/1
f 8/11/2 9/10/2 5/9/2
f 9/10/2 8/11/2 10/12/2
f 13/15/2 12/14/2 11/13/2
f 12/14/2 13/15/2 14/16/2
f 11/19/3 15/18/3 13/17/3
f 15/18/3 11/19/3 16/20/3
f 17/23/4 7/22/4 6/21/4
f 7/22/4 17/23/4 18/24/4
f 11/27/5 3/26/5 16/25/5
f 3/26/5 11/27/5 6/28/5
f 6/28/5 11/27/5 17/29/5
f 12/30/5 17/29/5 11/27/5
f 19/31/5 17/29/5 12/30/5
f 17/29/5 19/31/5 20/32/5
f 19/33/4 21/24/4 20/23/4
f 22/34/4 21/24/4 19/33/4
f 22/34/4 1/22/4 21/24/4
f 15/35/4 1/22/4 22/34/4
f 15/35/4 3/21/4 1/22/4
f 3/21/4 15/35/4 16/36/4
f 17/39/3 10/38/3 18/37/3
f 10/38/3 17/39/3 9/40/3
f 9/40/3 17/39/3 23/41/3
f 20/20/3 23/41/3 17/39/3
f 21/42/3 23/41/3 20/20/3
f 23/41/3 21/42/3 24/43/3
f 19/3/1 14/45/1 22/44/1
f 14/45/1 19/3/1 12/46/1
f 23/48/4 2/22/4 4/47/4
f 2/22/4 23/48/4 24/24/4
f 5/51/5 23/50/5 4/49/5
f 23/50/5 5/51/5 9/52/5

usemtl glass

f 2/49/5 21/32/5 1/26/5
f 21/32/5 2/49/5 24/50/5
f 7/28/5 10/52/5 8/51/5
f 10/52/5 7/28/5 18/29/5

