# Created by Kenney (www.kenney.nl)

mtllib door4.mtl

g mergedBlocks

v 0.2636246 0.6216413 -0.5
v 0.2636246 0.6216413 -0.47
v 0.2152486 0.6846862 -0.5
v 0.2152486 0.6846862 -0.47
v 0.1522037 0.7330621 -0.47
v 0.1522037 0.7330621 -0.5
v -0.07878646 0.7634726 -0.47
v -0.1522037 0.7330621 -0.47
v -0.07878646 0.7634726 -0.5
v -0.1383766 0.7387896 -0.5
v -0.1522037 0.7330621 -0.5
v 0.2612104 0.4694376 -0.49
v 0.2555234 0.5126346 -0.49
v 0.2612104 0.4694376 -0.47
v 0.2523099 0.5370438 -0.49
v 0.2523099 0.5370438 -0.47
v 0.2555234 0.5126346 -0.47
v 0.2262149 0.6000428 -0.49
v 0.1847037 0.6541412 -0.49
v 0.2262149 0.6000428 -0.47
v 0.1847037 0.6541412 -0.47
v -0.02159853 6.76792E-17 -0.47
v -0.02159853 0.7278045 -0.47
v 0.02159853 9.023893E-17 -0.47
v 0.02159853 0.7278045 -0.47
v -0.06760623 0.7217475 -0.47
v -0.1306052 0.6956524 -0.47
v -0.2152486 0.6846862 -0.47
v -0.1847037 0.6541412 -0.47
v -0.2636246 0.6216413 -0.47
v -0.2262149 0.6000428 -0.47
v -0.294035 0.548224 -0.47
v -0.2523099 0.5370438 -0.47
v -0.2987205 0.5126346 -0.47
v -0.2555234 0.5126346 -0.47
v -0.3044075 0.4694376 -0.47
v -0.2612104 0.4694376 -0.47
v -0.2612104 6.76792E-17 -0.47
v -0.3044075 0 -0.47
v 0.06760623 0.7217475 -0.47
v 0.1306052 0.6956524 -0.47
v 0.294035 0.548224 -0.47
v 0.2987205 0.5126346 -0.47
v 0.3044075 0.4694376 -0.47
v 0.2612104 9.023893E-17 -0.47
v 0.3044075 0 -0.47
v 0.07878646 0.7634726 -0.47
v -9.926282E-14 0.7738451 -0.47
v -0.2612104 0.4694376 -0.49
v -0.2612104 0.4485265 -0.49
v -0.2612104 0.4485265 -0.48
v -0.2612104 0.3885266 -0.48
v -0.2612104 6.76792E-17 -0.49
v -0.2612104 0.3885266 -0.49
v -0.02159853 0.3885266 -0.48
v -0.02159853 0.4485265 -0.48
v 0.3044075 0.4694376 -0.5
v 0.3044075 0 -0.5
v -0.02159853 0.3885266 -0.49
v 0.2612104 0.3885266 -0.48
v 0.2612104 0.3885266 -0.49
v 0.02159853 0.3885266 -0.48
v 0.02159853 0.3885266 -0.49
v -0.02159853 6.76792E-17 -0.49
v -0.02159853 0.7278045 -0.49
v -0.02159853 0.4485265 -0.49
v 0.02159853 9.023893E-17 -0.49
v -0.3044075 0 -0.5
v 0.2612104 9.023893E-17 -0.49
v 0.2612104 0.4485265 -0.48
v 0.02159853 0.4485265 -0.48
v 0.1383766 0.7387896 -0.5
v 0.07878646 0.7634726 -0.5
v -1.0576E-13 0.7738451 -0.5
v -0.2152486 0.6846862 -0.5
v -0.2987205 0.5126346 -0.5
v -0.294035 0.548224 -0.5
v -0.3044075 0.4694376 -0.5
v 0.2612104 0.4485265 -0.49
v 0.294035 0.548224 -0.5
v 0.2987205 0.5126346 -0.5
v 0.02159853 0.7278045 -0.49
v 0.02159853 0.4485265 -0.49
v 0.06760623 0.7217475 -0.49
v 0.1306052 0.6956524 -0.49
v -0.2636246 0.6216413 -0.5
v -0.2262149 0.6000428 -0.49
v -0.2523099 0.5370438 -0.49
v -0.06760623 0.7217475 -0.49
v -0.1306052 0.6956524 -0.49
v -0.2555234 0.5126346 -0.49
v -0.1847037 0.6541412 -0.49

vn 0.8660254 0.5 0
vn 0.7071068 0.7071068 0
vn 0.5 0.8660254 0
vn -0.258819 0.9659258 0
vn -0.5 0.8660254 0
vn -0.3826834 0.9238795 0
vn -0.9914449 -0.1305262 0
vn -0.9659258 -0.258819 0
vn -0.8660254 -0.5 0
vn -0.7071068 -0.7071068 0
vn 0 0 1
vn 1 0 0
vn 0 -1 0
vn -1 0 0
vn 0.258819 0.9659258 0
vn 0.3826834 0.9238795 0
vn 0 1 0
vn -0.7071068 0.7071068 0
vn -0.9914449 0.1305262 0
vn -0.9659258 0.258819 0
vn 0.9659258 0.258819 0
vn 0.9914449 0.1305262 0
vn -0.258819 -0.9659258 0
vn -0.1305262 -0.9914449 0
vn -0.5 -0.8660254 0
vn -0.8660254 0.5 0
vn 0.8660254 -0.5 0
vn 0.9659258 -0.258819 0
vn 0.258819 -0.9659258 0
vn 0.5 -0.8660254 0
vn 0.9914449 -0.1305262 0
vn 0.7071068 -0.7071068 0
vn 0.1305262 -0.9914449 0

vt 0.5 0.6216413
vt 0.47 0.6216413
vt 0.5 0.6846862
vt 0.47 0.6846862
vt -0.2152486 -0.47
vt -0.1522037 -0.47
vt -0.2152486 -0.5
vt -0.1522037 -0.5
vt 0.07878646 -0.47
vt 0.1522037 -0.47
vt 0.07878646 -0.5
vt 0.1383766 -0.5
vt 0.1522037 -0.5
vt -0.49 0.4694376
vt -0.49 0.5126346
vt -0.47 0.4694376
vt -0.49 0.5370438
vt -0.47 0.5370438
vt 0.2555234 0.5126346
vt 0.2612104 0.4694376
vt 0.2523099 0.5370438
vt -0.49 0.6000428
vt -0.49 0.6541412
vt -0.47 0.6000428
vt -0.47 0.6541412
vt -0.02159853 6.76792E-17
vt -0.02159853 0.7278045
vt 0.02159853 9.023893E-17
vt 0.02159853 0.7278045
vt -0.1522037 0.7330621
vt -0.06760623 0.7217475
vt -0.1306052 0.6956524
vt -0.2152486 0.6846862
vt -0.1847037 0.6541412
vt -0.2636246 0.6216413
vt -0.2262149 0.6000428
vt -0.294035 0.548224
vt -0.2523099 0.5370438
vt -0.2987205 0.5126346
vt -0.2555234 0.5126346
vt -0.3044075 0.4694376
vt -0.2612104 0.4694376
vt -0.2612104 6.76792E-17
vt -0.3044075 0
vt 0.1522037 0.7330621
vt 0.06760623 0.7217475
vt 0.1306052 0.6956524
vt 0.2152486 0.6846862
vt 0.1847037 0.6541412
vt 0.2636246 0.6216413
vt 0.2262149 0.6000428
vt 0.294035 0.548224
vt 0.2987205 0.5126346
vt 0.3044075 0.4694376
vt 0.2612104 9.023893E-17
vt 0.3044075 0
vt 0.07878646 0.7634726
vt -0.07878646 0.7634726
vt -9.926282E-14 0.7738451
vt 0.49 0.4694376
vt 0.49 0.4485265
vt 0.47 0.4694376
vt 0.48 0.4485265
vt 0.48 0.3885266
vt 0.47 6.76792E-17
vt 0.49 6.76792E-17
vt 0.49 0.3885266
vt -0.02159853 0.3885266
vt -0.2612104 0.3885266
vt -0.02159853 0.4485265
vt -0.2612104 0.4485265
vt 0.5 0.4694376
vt 0.5 0
vt 0.47 0
vt 0.02159853 0.48
vt 0.02159853 0.49
vt 0.2612104 0.48
vt 0.2612104 0.49
vt -0.2612104 0.48
vt -0.2612104 0.49
vt -0.02159853 0.48
vt -0.02159853 0.49
vt -0.49 6.76792E-17
vt -0.49 0.3885266
vt -0.47 6.76792E-17
vt -0.48 0.3885266
vt -0.48 0.4485265
vt -0.47 0.7278045
vt -0.49 0.7278045
vt -0.49 0.4485265
vt -0.02159853 0.47
vt 0.02159853 0.47
vt 0.3044075 0.5
vt -0.3044075 0.5
vt -0.2612104 0.47
vt -0.3044075 0.47
vt 0.3044075 0.47
vt 0.2612104 0.47
vt 0.2612104 0.3885266
vt 0.02159853 0.3885266
vt 0.2612104 0.4485265
vt 0.02159853 0.4485265
vt -0.07878646 -0.47
vt -0.1383766 -0.5
vt -0.07878646 -0.5
vt 9.926282E-14 -0.47
vt 1.0576E-13 -0.5
vt 0.2152486 -0.47
vt 0.2152486 -0.5
vt -0.47 0.548224
vt -0.5 0.4694376
vt -0.5 0.548224
vt 0.02159853 -0.48
vt 0.2612104 -0.48
vt 0.02159853 -0.49
vt 0.2612104 -0.49
vt -0.49 9.023893E-17
vt -0.47 9.023893E-17
vt 0.5 0.548224
vt 0.5 0.5126346
vt 0.47 0.548224
vt 0.47 0.5126346
vt 0.49 0.7278045
vt 0.47 0.7278045
vt 0.47 9.023893E-17
vt 0.49 9.023893E-17
vt -0.2612104 -0.48
vt -0.02159853 -0.48
vt -0.2612104 -0.49
vt -0.02159853 -0.49
vt -0.06760623 0.47
vt -0.06760623 0.49
vt -0.5 0
vt -0.47 0
vt -0.1306052 0.47
vt -0.1306052 0.49
vt -0.5 0.6216413
vt -0.47 0.6216413
vt -0.5 0.6846862
vt -0.47 0.6846862
vt -0.1847037 0.47
vt -0.1847037 0.49
vt 0.49 0.6000428
vt 0.49 0.5370438
vt 0.47 0.6000428
vt 0.47 0.5370438
vt 0.06760623 0.47
vt 0.06760623 0.49
vt 0.1306052 0.47
vt 0.1306052 0.49
vt 0.49 0.5126346
vt 0.49 0.6541412
vt 0.47 0.6541412
vt 0.1847037 0.47
vt 0.1847037 0.49

usemtl metalLight

f 3/3/2 2/2/1 1/1/1
f 2/2/1 3/3/2 4/4/2
f 3/7/2 5/6/3 4/5/2
f 5/6/3 3/7/2 6/8/3
f 9/11/4 8/10/5 7/9/4
f 8/10/5 9/11/4 10/12/6
f 8/10/5 10/12/6 11/13/5
f 14/16/7 13/15/7 12/14/7
f 13/15/7 14/16/7 15/17/8
f 15/17/8 14/16/7 16/18/8
f 16/21/8 14/20/7 17/19/7
f 20/24/9 19/23/10 18/22/9
f 19/23/10 20/24/9 21/25/10
f 24/28/11 23/27/11 22/26/11
f 23/27/11 24/28/11 25/29/11
f 8/30/11 23/27/11 25/29/11
f 8/30/11 26/31/11 23/27/11
f 8/30/11 27/32/11 26/31/11
f 28/33/11 27/32/11 8/30/11
f 28/33/11 29/34/11 27/32/11
f 30/35/11 29/34/11 28/33/11
f 30/35/11 31/36/11 29/34/11
f 32/37/11 31/36/11 30/35/11
f 32/37/11 33/38/11 31/36/11
f 34/39/11 33/38/11 32/37/11
f 34/39/11 35/40/11 33/38/11
f 36/41/11 35/40/11 34/39/11
f 36/41/11 37/42/11 35/40/11
f 36/41/11 38/43/11 37/42/11
f 38/43/11 36/41/11 39/44/11
f 8/30/11 25/29/11 5/45/11
f 40/46/11 5/45/11 25/29/11
f 41/47/11 5/45/11 40/46/11
f 41/47/11 4/48/11 5/45/11
f 21/49/11 4/48/11 41/47/11
f 21/49/11 2/50/11 4/48/11
f 20/51/11 2/50/11 21/49/11
f 20/51/11 42/52/11 2/50/11
f 16/21/11 42/52/11 20/51/11
f 17/19/11 42/52/11 16/21/11
f 17/19/11 43/53/11 42/52/11
f 14/20/11 43/53/11 17/19/11
f 14/20/11 44/54/11 43/53/11
f 45/55/11 44/54/11 14/20/11
f 44/54/11 45/55/11 46/56/11
f 8/30/11 5/45/11 47/57/11
f 8/30/11 47/57/11 7/58/11
f 7/58/11 47/57/11 48/59/11
f 37/62/12 50/61/12 49/60/12
f 50/61/12 37/62/12 51/63/12
f 51/63/12 37/62/12 52/64/12
f 38/65/12 52/64/12 37/62/12
f 53/66/12 52/64/12 38/65/12
f 52/64/12 53/66/12 54/67/12
f 56/70/11 52/69/11 55/68/11
f 52/69/11 56/70/11 51/71/11
f 44/62/12 58/73/12 57/72/12
f 58/73/12 44/62/12 46/74/12
f 52/77/13 59/76/13 55/75/13
f 59/76/13 52/77/13 54/78/13
f 62/81/13 61/80/13 60/79/13
f 61/80/13 62/81/13 63/82/13
f 22/85/14 59/84/14 64/83/14
f 59/84/14 22/85/14 55/86/14
f 55/86/14 22/85/14 56/87/14
f 23/88/14 56/87/14 22/85/14
f 65/89/14 56/87/14 23/88/14
f 56/87/14 65/89/14 66/90/14
f 22/92/13 67/82/13 24/91/13
f 64/76/13 67/82/13 22/92/13
f 68/93/13 67/82/13 64/76/13
f 68/93/13 69/80/13 67/82/13
f 58/94/13 69/80/13 68/93/13
f 58/94/13 45/95/13 69/80/13
f 45/95/13 58/94/13 46/96/13
f 68/93/13 64/76/13 53/78/13
f 68/93/13 53/78/13 39/97/13
f 39/97/13 53/78/13 38/98/13
f 70/101/11 62/100/11 60/99/11
f 62/100/11 70/101/11 71/102/11
f 6/8/3 47/103/15 5/6/3
f 47/103/15 6/8/3 72/104/16
f 47/103/15 72/104/16 73/105/15
f 74/107/17 7/9/4 48/106/17
f 7/9/4 74/107/17 9/11/4
f 11/13/5 28/108/18 8/10/5
f 28/108/18 11/13/5 75/109/18
f 78/41/19 77/37/20 76/39/19
f 77/112/20 78/111/19 32/110/20
f 32/110/20 78/111/19 36/16/19
f 32/37/20 36/41/19 34/39/19
f 66/115/17 51/114/17 56/113/17
f 51/114/17 66/115/17 50/116/17
f 45/118/14 61/84/14 69/117/14
f 61/84/14 45/118/14 60/86/14
f 60/86/14 45/118/14 70/87/14
f 14/16/14 70/87/14 45/118/14
f 12/14/14 70/87/14 14/16/14
f 70/87/14 12/14/14 79/90/14
f 42/121/21 81/120/22 80/119/21
f 81/120/22 42/121/21 43/122/22
f 44/62/22 81/120/22 43/122/22
f 81/120/22 44/62/22 57/72/22
f 25/124/12 83/61/12 82/123/12
f 83/61/12 25/124/12 71/63/12
f 71/63/12 25/124/12 62/64/12
f 24/125/12 62/64/12 25/124/12
f 67/126/12 62/64/12 24/125/12
f 62/64/12 67/126/12 63/67/12
f 79/129/17 71/128/17 70/127/17
f 71/128/17 79/129/17 83/130/17
f 73/105/15 48/106/17 47/103/15
f 48/106/17 73/105/15 74/107/17
f 25/91/24 84/132/23 40/131/23
f 84/132/23 25/91/24 82/82/24
f 39/134/14 78/111/14 68/133/14
f 78/111/14 39/134/14 36/16/14
f 16/18/8 18/22/9 15/17/8
f 18/22/9 16/18/8 20/24/9
f 40/131/23 85/136/25 41/135/25
f 85/136/25 40/131/23 84/132/23
f 77/112/20 30/138/26 86/137/26
f 30/138/26 77/112/20 32/110/20
f 86/137/26 28/140/18 75/139/18
f 28/140/18 86/137/26 30/138/26
f 41/135/25 19/142/10 21/141/10
f 19/142/10 41/135/25 85/136/25
f 31/145/27 88/144/28 87/143/27
f 88/144/28 31/145/27 33/146/28
f 27/149/30 89/148/29 26/147/29
f 89/148/29 27/149/30 90/150/30
f 33/146/28 91/151/31 88/144/28
f 91/151/31 33/146/28 49/60/31
f 49/60/31 33/146/28 35/122/31
f 49/60/31 35/122/31 37/62/31
f 1/1/1 42/121/21 80/119/21
f 42/121/21 1/1/1 2/2/1
f 29/153/32 87/143/27 92/152/32
f 87/143/27 29/153/32 31/145/27
f 26/147/29 65/76/33 23/92/33
f 65/76/33 26/147/29 89/148/29
f 29/154/32 90/150/30 27/149/30
f 90/150/30 29/154/32 92/155/32

usemtl glass

f 59/68/11 53/43/11 64/26/11
f 53/43/11 59/68/11 54/69/11
f 12/20/11 83/102/11 79/101/11
f 83/102/11 12/20/11 82/29/11
f 82/29/11 12/20/11 13/19/11
f 82/29/11 13/19/11 15/21/11
f 82/29/11 15/21/11 18/51/11
f 82/29/11 18/51/11 19/49/11
f 82/29/11 19/49/11 85/47/11
f 82/29/11 85/47/11 84/46/11
f 65/27/11 50/71/11 66/70/11
f 50/71/11 65/27/11 49/42/11
f 49/42/11 65/27/11 91/40/11
f 91/40/11 65/27/11 88/38/11
f 88/38/11 65/27/11 87/36/11
f 87/36/11 65/27/11 92/34/11
f 92/34/11 65/27/11 90/32/11
f 90/32/11 65/27/11 89/31/11
f 61/99/11 67/28/11 69/55/11
f 67/28/11 61/99/11 63/100/11

