# Created by Kenney (www.kenney.nl)

mtllib door3.mtl

g mergedBlocks

v -0.163003 4.511946E-17 -0.5
v -0.163003 0.5285265 -0.5
v -0.163003 4.511946E-17 -0.47
v -0.163003 0.5285265 -0.47
v 0.08150151 0.6696913 -0.47
v 0.04218829 0.6859754 -0.47
v 0.08150151 0.6696913 -0.5
v 0.04218829 0.6859754 -0.5
v 0.05990297 0.6322815 -0.47
v 0.05990297 0.6322815 -0.49
v 0.03100806 0.6442502 -0.47
v 0.03100806 0.6442502 -0.49
v 0.103755 0.5884295 -0.49
v 0.0847156 0.6132421 -0.49
v 0.103755 0.5884295 -0.47
v 0.0847156 0.6132421 -0.47
v 0.163003 0.5285265 -0.5
v 0.163003 0.5285265 -0.47
v 0.1574488 0.5707148 -0.5
v 0.1574488 0.5707148 -0.47
v 0.1198059 9.023893E-17 -0.49
v 0.1198059 0.4685265 -0.49
v 0.1198059 9.023893E-17 -0.47
v 0.1198059 0.4685265 -0.48
v 0.1198059 0.5285265 -0.48
v 0.1198059 0.5285265 -0.47
v 0.163003 4.511946E-17 -0.47
v 0.1157237 0.5595346 -0.47
v 0.1411647 0.6100281 -0.47
v 0.1152605 0.6437871 -0.47
v 8.925568E-10 0.6483325 -0.47
v -0.08150151 0.6696913 -0.47
v -0.03100806 0.6442502 -0.47
v -0.1152605 0.6437871 -0.47
v -0.05990297 0.6322815 -0.47
v -0.0847156 0.6132421 -0.47
v -0.1411647 0.6100281 -0.47
v -0.103755 0.5884295 -0.47
v -0.1574488 0.5707148 -0.47
v -0.1157237 0.5595346 -0.47
v -0.1198059 0.5285265 -0.47
v -0.1198059 9.023893E-17 -0.47
v -0.04218828 0.6859754 -0.47
v 1.214399E-09 0.6915296 -0.47
v -0.0847156 0.6132421 -0.49
v -0.103755 0.5884295 -0.49
v -0.1198059 0.4685265 -0.48
v -0.1198059 0.4685265 -0.49
v -0.1198059 9.023893E-17 -0.49
v 0.163003 4.511946E-17 -0.5
v -0.05990297 0.6322815 -0.49
v -0.03100806 0.6442502 -0.49
v 8.925541E-10 0.6483325 -0.49
v 0.1157237 0.5595346 -0.49
v -0.1198059 0.5285265 -0.48
v 0.1198059 0.5285265 -0.49
v -0.1198059 0.5285265 -0.49
v -0.1157237 0.5595346 -0.49
v 0.1411647 0.6100281 -0.5
v 0.1152605 0.6437871 -0.5
v -0.04218828 0.6859754 -0.5
v -0.08150151 0.6696913 -0.5
v -0.1574488 0.5707148 -0.5
v 1.214395E-09 0.6915296 -0.5
v -0.1411647 0.6100281 -0.5
v -0.1152605 0.6437871 -0.5

vn -1 0 0
vn -0.9978589 0.06540313 0
vn 0.5 0.8660254 0
vn 0.258819 0.9659258 0
vn -0.5 -0.8660254 0
vn -0.258819 -0.9659258 0
vn -0.8660254 -0.5 0
vn -0.7071068 -0.7071068 0
vn 0.9978589 0.06540313 0
vn 0.9659258 0.258819 0
vn -0.9961922 -0.08718336 0
vn -0.9978589 -0.06540313 0
vn 0 0 1
vn 0.7071068 -0.7071068 0
vn 0.8660254 -0.5 0
vn 0 -1 0
vn 0.5 -0.8660254 0
vn 0.258819 -0.9659258 0
vn -0.9659258 -0.258819 0
vn 1 0 0
vn 0.9961922 -0.08718336 0
vn 0.9978589 -0.06540313 0
vn 0 1 0
vn 0.9659258 -0.258819 0
vn -0.9914449 -0.1305262 0
vn 0.8660254 0.5 0
vn 0.7071068 0.7071068 0
vn 0.9914449 -0.1305262 0
vn -0.258819 0.9659258 0
vn -0.5 0.8660254 0
vn -0.9659258 0.258819 0
vn -0.8660254 0.5 0
vn -0.7071068 0.7071068 0

vt -0.5 4.511946E-17
vt -0.5 0.5285265
vt -0.47 4.511946E-17
vt -0.47 0.5285265
vt -0.08150151 -0.47
vt -0.04218829 -0.47
vt -0.08150151 -0.5
vt -0.04218829 -0.5
vt -0.05990297 0.47
vt -0.05990297 0.49
vt -0.03100806 0.47
vt -0.03100806 0.49
vt -0.49 0.5884295
vt -0.49 0.6132421
vt -0.47 0.5884295
vt -0.47 0.6132421
vt 0.5 0.5285265
vt 0.47 0.5285265
vt 0.5 0.5707148
vt 0.47 0.5707148
vt -0.49 9.023893E-17
vt -0.49 0.4685265
vt -0.47 9.023893E-17
vt -0.48 0.4685265
vt -0.48 0.5285265
vt 0.163003 4.511946E-17
vt 0.1198059 9.023893E-17
vt 0.163003 0.5285265
vt 0.1198059 0.5285265
vt 0.1574488 0.5707148
vt 0.1157237 0.5595346
vt 0.103755 0.5884295
vt 0.1411647 0.6100281
vt 0.0847156 0.6132421
vt 0.1152605 0.6437871
vt 0.05990297 0.6322815
vt 0.03100806 0.6442502
vt 0.08150151 0.6696913
vt 8.925568E-10 0.6483325
vt -0.08150151 0.6696913
vt -0.03100806 0.6442502
vt -0.1152605 0.6437871
vt -0.05990297 0.6322815
vt -0.0847156 0.6132421
vt -0.1411647 0.6100281
vt -0.103755 0.5884295
vt -0.1574488 0.5707148
vt -0.1157237 0.5595346
vt -0.163003 0.5285265
vt -0.1198059 0.5285265
vt -0.1198059 9.023893E-17
vt -0.163003 4.511946E-17
vt 0.04218829 0.6859754
vt -0.04218828 0.6859754
vt 1.214399E-09 0.6915296
vt 0.49 0.6132421
vt 0.49 0.5884295
vt 0.47 0.6132421
vt 0.47 0.5884295
vt -0.1198059 0.48
vt -0.1198059 0.49
vt 0.1198059 0.48
vt 0.1198059 0.49
vt 0.1198059 0.47
vt 0.163003 0.47
vt 0.163003 0.5
vt -0.163003 0.5
vt -0.1198059 0.47
vt -0.163003 0.47
vt 0.05990297 0.47
vt 0.05990297 0.49
vt 0.0847156 0.47
vt 0.0847156 0.49
vt 0.03100806 0.47
vt 0.03100806 0.49
vt -8.925568E-10 0.47
vt -8.925541E-10 0.49
vt -0.49 0.5595346
vt -0.47 0.5595346
vt 0.1198059 0.4685265
vt -0.1198059 0.4685265
vt 0.5 4.511946E-17
vt 0.47 4.511946E-17
vt 0.48 0.5285265
vt 0.48 0.4685265
vt 0.47 9.023893E-17
vt 0.49 9.023893E-17
vt 0.49 0.4685265
vt -0.1198059 -0.49
vt -0.1198059 -0.48
vt 0.1198059 -0.49
vt 0.1198059 -0.48
vt 0.49 0.5595346
vt 0.47 0.5595346
vt -0.49 0.5285265
vt 0.5 0.6100281
vt 0.47 0.6100281
vt 0.5 0.6437871
vt 0.47 0.6437871
vt 0.49 0.5285265
vt -0.0847156 0.47
vt -0.0847156 0.49
vt -0.1152605 -0.47
vt -0.1152605 -0.5
vt 0.04218828 -0.47
vt 0.08150151 -0.47
vt 0.04218828 -0.5
vt 0.08150151 -0.5
vt -0.5 0.5707148
vt -0.47 0.5707148
vt -1.214399E-09 -0.47
vt -1.214395E-09 -0.5
vt -0.5 0.6100281
vt -0.47 0.6100281
vt -0.5 0.6437871
vt -0.47 0.6437871
vt 0.1152605 -0.47
vt 0.1152605 -0.5
vt 8.925541E-10 0.6483325

usemtl metalLight

f 3/3/1 2/2/2 1/1/1
f 2/2/2 3/3/1 4/4/2
f 7/7/3 6/6/4 5/5/3
f 6/6/4 7/7/3 8/8/4
f 11/11/6 10/10/5 9/9/5
f 10/10/5 11/11/6 12/12/6
f 15/15/7 14/14/8 13/13/7
f 14/14/8 15/15/7 16/16/8
f 19/19/10 18/18/9 17/17/9
f 18/18/9 19/19/10 20/20/10
f 23/23/1 22/22/1 21/21/1
f 22/22/1 23/23/1 24/24/1
f 24/24/1 23/23/1 25/25/11
f 25/25/11 23/23/1 26/4/12
f 18/28/13 23/27/13 27/26/13
f 23/27/13 18/28/13 26/29/13
f 26/29/13 18/28/13 20/30/13
f 26/29/13 20/30/13 28/31/13
f 28/31/13 20/30/13 15/32/13
f 15/32/13 20/30/13 29/33/13
f 15/32/13 29/33/13 16/34/13
f 16/34/13 29/33/13 30/35/13
f 16/34/13 30/35/13 9/36/13
f 9/36/13 30/35/13 11/37/13
f 11/37/13 30/35/13 5/38/13
f 11/37/13 5/38/13 31/39/13
f 32/40/13 31/39/13 5/38/13
f 32/40/13 33/41/13 31/39/13
f 34/42/13 33/41/13 32/40/13
f 34/42/13 35/43/13 33/41/13
f 34/42/13 36/44/13 35/43/13
f 37/45/13 36/44/13 34/42/13
f 37/45/13 38/46/13 36/44/13
f 39/47/13 38/46/13 37/45/13
f 39/47/13 40/48/13 38/46/13
f 4/49/13 40/48/13 39/47/13
f 4/49/13 41/50/13 40/48/13
f 4/49/13 42/51/13 41/50/13
f 42/51/13 4/49/13 3/52/13
f 32/40/13 5/38/13 6/53/13
f 32/40/13 6/53/13 43/54/13
f 43/54/13 6/53/13 44/55/13
f 36/58/14 46/57/15 45/56/14
f 46/57/15 36/58/14 38/59/15
f 47/62/16 22/61/16 24/60/16
f 22/61/16 47/62/16 48/63/16
f 3/65/16 49/63/16 42/64/16
f 1/66/16 49/63/16 3/65/16
f 1/66/16 21/61/16 49/63/16
f 50/67/16 21/61/16 1/66/16
f 50/67/16 23/68/16 21/61/16
f 23/68/16 50/67/16 27/69/16
f 36/72/14 51/71/17 35/70/17
f 51/71/17 36/72/14 45/73/14
f 35/70/17 52/75/18 33/74/18
f 52/75/18 35/70/17 51/71/17
f 33/74/18 53/77/16 31/76/16
f 53/77/16 33/74/18 52/75/18
f 31/76/16 12/12/6 11/11/6
f 12/12/6 31/76/16 53/77/16
f 28/79/19 13/13/7 54/78/19
f 13/13/7 28/79/19 15/15/7
f 25/29/13 47/81/13 24/80/13
f 47/81/13 25/29/13 55/50/13
f 18/18/9 50/82/20 17/17/9
f 50/82/20 18/18/9 27/83/20
f 41/18/22 47/85/20 55/84/21
f 42/86/20 47/85/20 41/18/22
f 49/87/20 47/85/20 42/86/20
f 47/85/20 49/87/20 48/88/20
f 57/91/23 25/90/23 56/89/23
f 25/90/23 57/91/23 55/92/23
f 38/59/15 58/93/24 46/57/15
f 58/93/24 38/59/15 40/94/24
f 25/25/11 54/78/19 56/95/25
f 54/78/19 25/25/11 28/79/19
f 28/79/19 25/25/11 26/4/12
f 59/96/26 20/20/10 19/19/10
f 20/20/10 59/96/26 29/97/26
f 60/98/27 29/97/26 59/96/26
f 29/97/26 60/98/27 30/99/27
f 40/94/24 57/100/28 58/93/24
f 57/100/28 40/94/24 55/84/21
f 55/84/21 40/94/24 41/18/22
f 9/9/5 14/102/8 16/101/8
f 14/102/8 9/9/5 10/10/5
f 60/104/27 5/5/3 30/103/27
f 5/5/3 60/104/27 7/7/3
f 61/107/29 32/106/30 43/105/29
f 32/106/30 61/107/29 62/108/30
f 4/4/2 63/109/31 2/2/2
f 63/109/31 4/4/2 39/110/31
f 64/112/23 43/105/29 44/111/23
f 43/105/29 64/112/23 61/107/29
f 63/109/31 37/114/32 65/113/32
f 37/114/32 63/109/31 39/110/31
f 65/113/32 34/116/33 66/115/33
f 34/116/33 65/113/32 37/114/32
f 62/108/30 34/117/33 32/106/30
f 34/117/33 62/108/30 66/118/33
f 8/8/4 44/111/23 6/6/4
f 44/111/23 8/8/4 64/112/23

usemtl glass

f 22/80/13 49/51/13 21/27/13
f 49/51/13 22/80/13 48/81/13
f 54/31/13 57/50/13 56/29/13
f 57/50/13 54/31/13 58/48/13
f 58/48/13 54/31/13 13/32/13
f 58/48/13 13/32/13 46/46/13
f 46/46/13 13/32/13 14/34/13
f 46/46/13 14/34/13 45/44/13
f 45/44/13 14/34/13 10/36/13
f 45/44/13 10/36/13 51/43/13
f 51/43/13 10/36/13 12/37/13
f 51/43/13 12/37/13 52/41/13
f 52/41/13 12/37/13 53/119/13

