# Created by Kenney (www.kenney.nl)

mtllib door2.mtl

g mergedBlocks

v -0.1198059 2.255973E-17 -0.49
v 0.09917676 0.02062918 -0.49
v 0.1198059 2.255973E-17 -0.49
v 0.1198059 0.4685265 -0.49
v 0.09917676 0.2239487 -0.49
v 0.09917676 0.2445779 -0.49
v -0.09917676 0.2239487 -0.49
v 0.09917676 0.4478974 -0.49
v -0.09917676 0.4478974 -0.49
v -0.09917676 0.02062918 -0.49
v -0.1198059 0.4685265 -0.49
v -0.09917676 0.2445779 -0.49
v 0.1198059 2.255973E-17 -0.47
v 0.1198059 0.4685265 -0.47
v 0.163003 2.255973E-17 -0.5
v 0.163003 2.255973E-17 -0.47
v 0.163003 0.4685265 -0.5
v 0.163003 0.4685265 -0.47
v 0.1198059 0.5117236 -0.5
v 0.1198059 0.5117236 -0.47
v -0.1198059 0.5117236 -0.5
v -0.1198059 0.5117236 -0.47
v -0.163003 2.255973E-17 -0.5
v -0.163003 0.4685265 -0.5
v -0.163003 2.255973E-17 -0.47
v -0.163003 0.4685265 -0.47
v 0.1626335 0.4741649 -0.47
v -0.1198059 0.4685265 -0.47
v -0.1626335 0.4741649 -0.47
v 0.1615311 0.4797068 -0.47
v -0.1615311 0.4797068 -0.47
v 0.1597148 0.4850574 -0.47
v -0.1597148 0.4850574 -0.47
v 0.1572157 0.4901251 -0.47
v -0.1572157 0.4901251 -0.47
v 0.1540765 0.4948233 -0.47
v -0.1540765 0.4948233 -0.47
v 0.1503509 0.4990715 -0.47
v -0.1503509 0.4990715 -0.47
v 0.1461027 0.5027971 -0.47
v -0.1461027 0.5027971 -0.47
v 0.1414045 0.5059363 -0.47
v -0.1414045 0.5059363 -0.47
v 0.1363367 0.5084354 -0.47
v -0.1363367 0.5084354 -0.47
v 0.1309862 0.5102517 -0.47
v -0.1309862 0.5102517 -0.47
v 0.1254443 0.511354 -0.47
v -0.1254443 0.511354 -0.47
v -0.1198059 2.255973E-17 -0.47
v -0.1626335 0.4741649 -0.5
v -0.1615311 0.4797068 -0.5
v -0.1597148 0.4850574 -0.5
v -0.1572157 0.4901251 -0.5
v -0.1540765 0.4948233 -0.5
v -0.1414045 0.5059363 -0.5
v -0.1461027 0.5027971 -0.5
v -0.1254443 0.511354 -0.5
v 0.1309862 0.5102517 -0.5
v 0.1254443 0.511354 -0.5
v -0.1363367 0.5084354 -0.5
v -0.1309862 0.5102517 -0.5
v 0.1363367 0.5084354 -0.5
v 0.1572157 0.4901251 -0.5
v 0.1597148 0.4850574 -0.5
v 0.1461027 0.5027971 -0.5
v 0.1414045 0.5059363 -0.5
v 0.1615311 0.4797068 -0.5
v -0.1503509 0.4990715 -0.5
v 0.1540765 0.4948233 -0.5
v 0.1626335 0.4741649 -0.5
v 0.1503509 0.4990715 -0.5

vn 0 0 1
vn -1 0 0
vn 1 0 0
vn 0 1 0
vn 0 -1 0
vn -0.9978589 0.06540313 0
vn -0.9914449 0.1305262 0
vn -0.9659258 0.258819 0
vn -0.9238795 0.3826834 0
vn -0.8660254 0.5 0
vn -0.7933533 0.6087614 0
vn -0.5 0.8660254 0
vn -0.6087614 0.7933533 0
vn -0.06540313 0.9978589 0
vn -0.1305262 0.9914449 0
vn 0.258819 0.9659258 0
vn 0.1305262 0.9914449 0
vn -0.3826834 0.9238795 0
vn -0.258819 0.9659258 0
vn 0.3826834 0.9238795 0
vn 0.8660254 0.5 0
vn 0.9238795 0.3826834 0
vn 0.6087614 0.7933533 0
vn 0.5 0.8660254 0
vn 0.9659258 0.258819 0
vn -0.7071068 0.7071068 0
vn 0.06540313 0.9978589 0
vn 0.7933533 0.6087614 0
vn 0.9914449 0.1305262 0
vn 0.9978589 0.06540313 0
vn 0.7071068 0.7071068 0

vt -0.1198059 2.255973E-17
vt 0.09917676 0.02062918
vt 0.1198059 2.255973E-17
vt 0.1198059 0.4685265
vt 0.09917676 0.2239487
vt 0.09917676 0.2445779
vt -0.09917676 0.2239487
vt 0.09917676 0.4478974
vt -0.09917676 0.4478974
vt -0.09917676 0.02062918
vt -0.1198059 0.4685265
vt -0.09917676 0.2445779
vt -0.49 2.255973E-17
vt -0.49 0.4685265
vt -0.47 2.255973E-17
vt -0.47 0.4685265
vt 0.5 2.255973E-17
vt 0.47 2.255973E-17
vt 0.5 0.4685265
vt 0.47 0.4685265
vt -0.1198059 -0.5
vt -0.1198059 -0.47
vt 0.1198059 -0.5
vt 0.1198059 -0.47
vt -0.5 2.255973E-17
vt -0.5 0.4685265
vt 0.163003 2.255973E-17
vt 0.163003 0.4685265
vt 0.1626335 0.4741649
vt -0.163003 0.4685265
vt -0.1626335 0.4741649
vt 0.1615311 0.4797068
vt -0.1615311 0.4797068
vt 0.1597148 0.4850574
vt -0.1597148 0.4850574
vt 0.1572157 0.4901251
vt -0.1572157 0.4901251
vt 0.1540765 0.4948233
vt -0.1540765 0.4948233
vt 0.1503509 0.4990715
vt -0.1503509 0.4990715
vt 0.1461027 0.5027971
vt -0.1461027 0.5027971
vt 0.1414045 0.5059363
vt -0.1414045 0.5059363
vt 0.1363367 0.5084354
vt -0.1363367 0.5084354
vt 0.1309862 0.5102517
vt -0.1309862 0.5102517
vt 0.1254443 0.511354
vt -0.1254443 0.511354
vt 0.1198059 0.5117236
vt -0.1198059 0.5117236
vt -0.163003 2.255973E-17
vt -0.163003 0.47
vt -0.1198059 0.49
vt -0.1198059 0.47
vt -0.163003 0.5
vt 0.163003 0.5
vt 0.1198059 0.49
vt 0.1198059 0.47
vt 0.163003 0.47
vt -0.5 0.4741649
vt -0.47 0.4741649
vt -0.5 0.4797068
vt -0.47 0.4797068
vt -0.5 0.4850574
vt -0.47 0.4850574
vt -0.5 0.4901251
vt -0.47 0.4901251
vt -0.5 0.4948233
vt -0.47 0.4948233
vt 0.49 0.4685265
vt 0.49 2.255973E-17
vt 0.1414045 -0.5
vt 0.1414045 -0.47
vt 0.1461027 -0.5
vt 0.1461027 -0.47
vt 0.1254443 -0.5
vt 0.1254443 -0.47
vt -0.1309862 -0.5
vt -0.1309862 -0.47
vt -0.1254443 -0.5
vt -0.1254443 -0.47
vt 0.1363367 -0.5
vt 0.1363367 -0.47
vt 0.1309862 -0.5
vt 0.1309862 -0.47
vt -0.1363367 -0.5
vt -0.1363367 -0.47
vt 0.5 0.4901251
vt 0.5 0.4850574
vt 0.47 0.4901251
vt 0.47 0.4850574
vt -0.1461027 -0.5
vt -0.1461027 -0.47
vt -0.1414045 -0.5
vt -0.1414045 -0.47
vt 0.5 0.4797068
vt 0.47 0.4797068
vt 0.1503509 -0.5
vt 0.1503509 -0.47
vt 0.5 0.4948233
vt 0.47 0.4948233
vt -0.5 0.4990715
vt -0.47 0.4990715
vt 0.5 0.4741649
vt 0.47 0.4741649
vt 0.5 0.4990715
vt 0.47 0.4990715
vt -0.1503509 -0.5
vt -0.1503509 -0.47

usemtl metalLight

f 3/3/1 2/2/1 1/1/1
f 2/2/1 3/3/1 4/4/1
f 2/2/1 4/4/1 5/5/1
f 5/5/1 4/4/1 6/6/1
f 5/5/1 6/6/1 7/7/1
f 6/6/1 4/4/1 8/8/1
f 8/8/1 4/4/1 9/9/1
f 10/10/1 1/1/1 2/2/1
f 1/1/1 10/10/1 11/11/1
f 11/11/1 10/10/1 7/7/1
f 11/11/1 9/9/1 4/4/1
f 11/11/1 7/7/1 12/12/1
f 12/12/1 7/7/1 6/6/1
f 11/11/1 12/12/1 9/9/1
f 13/15/2 4/14/2 3/13/2
f 4/14/2 13/15/2 14/16/2
f 17/19/3 16/18/3 15/17/3
f 16/18/3 17/19/3 18/20/3
f 21/23/4 20/22/4 19/21/4
f 20/22/4 21/23/4 22/24/4
f 25/15/2 24/26/2 23/25/2
f 24/26/2 25/15/2 26/16/2
f 18/28/1 13/3/1 16/27/1
f 13/3/1 18/28/1 14/4/1
f 14/4/1 18/28/1 27/29/1
f 14/4/1 27/29/1 28/11/1
f 28/11/1 27/29/1 26/30/1
f 26/30/1 27/29/1 29/31/1
f 29/31/1 27/29/1 30/32/1
f 29/31/1 30/32/1 31/33/1
f 31/33/1 30/32/1 32/34/1
f 31/33/1 32/34/1 33/35/1
f 33/35/1 32/34/1 34/36/1
f 33/35/1 34/36/1 35/37/1
f 35/37/1 34/36/1 36/38/1
f 35/37/1 36/38/1 37/39/1
f 37/39/1 36/38/1 38/40/1
f 37/39/1 38/40/1 39/41/1
f 39/41/1 38/40/1 40/42/1
f 39/41/1 40/42/1 41/43/1
f 41/43/1 40/42/1 42/44/1
f 41/43/1 42/44/1 43/45/1
f 43/45/1 42/44/1 44/46/1
f 43/45/1 44/46/1 45/47/1
f 45/47/1 44/46/1 46/48/1
f 45/47/1 46/48/1 47/49/1
f 47/49/1 46/48/1 48/50/1
f 47/49/1 48/50/1 49/51/1
f 49/51/1 48/50/1 20/52/1
f 49/51/1 20/52/1 22/53/1
f 28/11/1 25/54/1 50/1/1
f 25/54/1 28/11/1 26/30/1
f 13/57/5 3/56/5 16/55/5
f 3/56/5 15/58/5 16/55/5
f 15/58/5 3/56/5 23/59/5
f 23/59/5 3/56/5 1/60/5
f 23/59/5 1/60/5 50/61/5
f 23/59/5 50/61/5 25/62/5
f 26/16/6 51/63/7 24/26/6
f 51/63/7 26/16/6 29/64/7
f 29/64/7 52/65/8 51/63/7
f 52/65/8 29/64/7 31/66/8
f 31/66/8 53/67/9 52/65/8
f 53/67/9 31/66/8 33/68/9
f 33/68/9 54/69/10 53/67/9
f 54/69/10 33/68/9 35/70/10
f 35/70/10 55/71/11 54/69/10
f 55/71/11 35/70/10 37/72/11
f 28/20/3 1/74/3 11/73/3
f 1/74/3 28/20/3 50/18/3
f 14/57/5 11/60/5 4/56/5
f 11/60/5 14/57/5 28/61/5
f 57/77/13 43/76/12 56/75/12
f 43/76/12 57/77/13 41/78/13
f 58/79/15 22/24/14 21/23/14
f 22/24/14 58/79/15 49/80/15
f 60/83/17 46/82/16 59/81/16
f 46/82/16 60/83/17 48/84/17
f 56/75/12 45/86/18 61/85/18
f 45/86/18 56/75/12 43/76/12
f 62/87/19 49/80/15 58/79/15
f 49/80/15 62/87/19 47/88/19
f 59/81/16 44/90/20 63/89/20
f 44/90/20 59/81/16 46/82/16
f 34/93/21 65/92/22 64/91/21
f 65/92/22 34/93/21 32/94/22
f 67/97/24 40/96/23 66/95/23
f 40/96/23 67/97/24 42/98/24
f 61/85/18 47/88/19 62/87/19
f 47/88/19 61/85/18 45/86/18
f 32/94/22 68/99/25 65/92/22
f 68/99/25 32/94/22 30/100/25
f 69/101/26 41/78/13 57/77/13
f 41/78/13 69/101/26 39/102/26
f 19/21/27 48/84/17 60/83/17
f 48/84/17 19/21/27 20/22/27
f 36/104/28 64/91/21 70/103/28
f 64/91/21 36/104/28 34/93/21
f 37/72/11 69/105/26 55/71/11
f 69/105/26 37/72/11 39/106/26
f 27/108/29 17/19/30 71/107/29
f 17/19/30 27/108/29 18/20/30
f 38/110/31 70/103/28 72/109/31
f 70/103/28 38/110/31 36/104/28
f 30/100/25 71/107/29 68/99/25
f 71/107/29 30/100/25 27/108/29
f 66/95/23 38/112/31 72/111/31
f 38/112/31 66/95/23 40/96/23
f 63/89/20 42/98/24 67/97/24
f 42/98/24 63/89/20 44/90/20

usemtl glass

f 8/8/1 12/12/1 6/6/1
f 12/12/1 8/8/1 9/9/1
f 5/5/1 10/10/1 2/2/1
f 10/10/1 5/5/1 7/7/1

