# Created by Kenney (www.kenney.nl)

mtllib roof4.mtl

g mergedBlocks

v -0.6 0.5 0
v -0.5 0.5 0
v -0.6 0.6414214 0
v 0.5 0.5 0
v 0.6 0.5 0
v 0.6 0.6414214 0
v -0.6 1.127987E-17 0.6414214
v 0.6 2.707168E-16 0.6414214
v 0.6 -0.07071068 0.5707107
v -0.6 -0.07071068 0.5707107
v 0.5 0 0.5
v -0.5 0 0.5
v 0.5 0 0
v -0.5 0 0

vn 0 0 -1
vn 0 0.7071068 0.7071068
vn 1 0 0
vn 0 -0.7071068 0.7071068
vn -1 0 0
vn 0 -0.7071068 -0.7071068
vn 0 -1 0

vt 0.6 0.5
vt 0.5 0.5
vt 0.6 0.6414214
vt -0.5 0.5
vt -0.6 0.5
vt -0.6 0.6414214
vt -0.6 1.127987E-17
vt 0.6 2.707168E-16
vt 0 0.6414214
vt 0 0.5
vt -0.6414214 2.707168E-16
vt -0.5707107 -0.07071068
vt 0.6 -0.5707107
vt 0.6 -0.6414214
vt -0.6 -0.5707107
vt -0.6 -0.6414214
vt 0.5707107 -0.07071068
vt 0.6414214 1.127987E-17
vt -0.5 0
vt -0.6 -0.07071068
vt 0.5 0
vt 0.6 -0.07071068
vt -0.5 -0.5
vt 0.5 -0.5
vt 0 0

usemtl stone

f 3/3/1 2/2/1 1/1/1
f 2/2/1 3/3/1 4/4/1
f 4/4/1 3/3/1 5/5/1
f 5/5/1 3/3/1 6/6/1
f 8/8/2 3/6/2 7/7/2
f 3/6/2 8/8/2 6/3/2
f 8/11/3 5/10/3 6/9/3
f 5/10/3 8/11/3 9/12/3
f 9/15/4 7/14/4 10/13/4
f 7/14/4 9/15/4 8/16/4
f 10/17/5 3/9/5 1/10/5
f 3/9/5 10/17/5 7/18/5
f 9/20/6 11/19/6 5/5/6
f 11/19/6 9/20/6 12/21/6
f 5/5/6 11/19/6 4/4/6
f 10/22/6 12/21/6 9/20/6
f 12/21/6 10/22/6 1/1/6
f 12/21/6 1/1/6 2/2/6

usemtl bricks

f 12/24/7 13/19/7 11/23/7
f 13/19/7 12/24/7 14/21/7
f 2/2/1 13/19/1 14/21/1
f 13/19/1 2/2/1 4/4/1
f 12/21/5 2/10/5 14/25/5
f 11/19/3 13/25/3 4/10/3

