# Created by Kenney (www.kenney.nl)

mtllib window10.mtl

g mergedBlocks

v -0.02159852 0.730648 -0.49
v -0.2612104 0.730648 -0.49
v -0.02159852 0.730648 -0.47
v -0.2612104 0.730648 -0.47
v -0.02159852 0.269352 -0.49
v -0.02159852 0.269352 -0.47
v -0.2612104 0.269352 -0.49
v -0.2612104 0.269352 -0.47
v -0.02159852 0.4685265 -0.49
v -0.02159852 0.4685265 -0.48
v -0.02159852 0.5285265 -0.48
v -0.02159852 0.5285265 -0.49
v 0.02159854 0.730648 -0.49
v 0.02159854 0.5285265 -0.49
v 0.02159854 0.730648 -0.47
v 0.02159854 0.5285265 -0.48
v 0.02159854 0.4685265 -0.48
v 0.02159854 0.269352 -0.47
v 0.02159854 0.269352 -0.49
v 0.02159854 0.4685265 -0.49
v 0.3044075 0.7738451 -0.5
v 0.3044075 0.7738451 -0.47
v -0.3044075 0.7738451 -0.5
v -0.3044075 0.7738451 -0.47
v -0.3044075 0.2261549 -0.47
v 0.2612104 0.269352 -0.47
v 0.3044075 0.2261549 -0.47
v 0.2612104 0.730648 -0.47
v -0.3044075 0.2261549 -0.5
v 0.2612104 0.4685265 -0.49
v 0.2612104 0.4685265 -0.48
v 0.2612104 0.269352 -0.49
v 0.2612104 0.5285265 -0.48
v 0.2612104 0.730648 -0.49
v 0.2612104 0.5285265 -0.49
v -0.2612104 0.4685265 -0.48
v -0.2612104 0.5285265 -0.48
v 0.3044075 0.2261549 -0.5
v -0.2612104 0.5285265 -0.49
v -0.2612104 0.4685265 -0.49

vn 0 -1 0
vn 0 1 0
vn -1 0 0
vn 1 0 0
vn 0 0 1

vt 0.02159852 0.49
vt 0.2612104 0.49
vt 0.02159852 0.47
vt 0.2612104 0.47
vt 0.02159852 -0.49
vt 0.02159852 -0.47
vt 0.2612104 -0.49
vt 0.2612104 -0.47
vt -0.49 0.269352
vt -0.49 0.4685265
vt -0.47 0.269352
vt -0.48 0.4685265
vt -0.48 0.5285265
vt -0.47 0.730648
vt -0.49 0.730648
vt -0.49 0.5285265
vt 0.49 0.730648
vt 0.49 0.5285265
vt 0.47 0.730648
vt 0.48 0.5285265
vt 0.48 0.4685265
vt 0.47 0.269352
vt 0.49 0.269352
vt 0.49 0.4685265
vt -0.3044075 -0.5
vt -0.3044075 -0.47
vt 0.3044075 -0.5
vt 0.3044075 -0.47
vt -0.3044075 0.2261549
vt 0.2612104 0.269352
vt 0.3044075 0.2261549
vt 0.3044075 0.7738451
vt 0.2612104 0.730648
vt 0.02159854 0.730648
vt -0.02159852 0.730648
vt -0.2612104 0.730648
vt -0.2612104 0.269352
vt -0.3044075 0.7738451
vt 0.02159854 0.269352
vt -0.02159852 0.269352
vt -0.5 0.2261549
vt -0.5 0.7738451
vt -0.47 0.2261549
vt -0.47 0.7738451
vt -0.2612104 0.49
vt -0.02159854 0.49
vt -0.2612104 0.48
vt -0.02159854 0.48
vt -0.02159852 0.4685265
vt -0.2612104 0.4685265
vt -0.02159852 0.5285265
vt -0.2612104 0.5285265
vt 0.5 0.7738451
vt 0.5 0.2261549
vt 0.47 0.7738451
vt 0.47 0.2261549
vt 0.02159852 -0.48
vt 0.2612104 -0.48
vt -0.3044075 0.5
vt 0.3044075 0.5
vt -0.3044075 0.47
vt 0.3044075 0.47
vt 0.02159852 0.48
vt 0.2612104 0.48
vt -0.2612104 -0.49
vt -0.2612104 -0.48
vt -0.02159854 -0.49
vt -0.02159854 -0.48
vt -0.2612104 0.47
vt -0.02159854 0.47
vt -0.2612104 -0.47
vt -0.02159854 -0.47
vt 0.2612104 0.4685265
vt 0.02159854 0.4685265
vt 0.2612104 0.5285265
vt 0.02159854 0.5285265

usemtl metalLight

f 3/3/1 2/2/1 1/1/1
f 2/2/1 3/3/1 4/4/1
f 7/7/2 6/6/2 5/5/2
f 6/6/2 7/7/2 8/8/2
f 6/11/3 9/10/3 5/9/3
f 9/10/3 6/11/3 10/12/3
f 10/12/3 6/11/3 11/13/3
f 3/14/3 11/13/3 6/11/3
f 1/15/3 11/13/3 3/14/3
f 11/13/3 1/15/3 12/16/3
f 15/19/4 14/18/4 13/17/4
f 14/18/4 15/19/4 16/20/4
f 16/20/4 15/19/4 17/21/4
f 18/22/4 17/21/4 15/19/4
f 19/23/4 17/21/4 18/22/4
f 17/21/4 19/23/4 20/24/4
f 23/27/2 22/26/2 21/25/2
f 22/26/2 23/27/2 24/28/2
f 27/31/5 26/30/5 25/29/5
f 26/30/5 27/31/5 22/32/5
f 26/30/5 22/32/5 28/33/5
f 28/33/5 22/32/5 15/34/5
f 15/34/5 22/32/5 3/35/5
f 3/35/5 22/32/5 4/36/5
f 8/37/5 25/29/5 26/30/5
f 25/29/5 8/37/5 24/38/5
f 24/38/5 8/37/5 4/36/5
f 24/38/5 4/36/5 22/32/5
f 8/37/5 26/30/5 18/39/5
f 8/37/5 18/39/5 6/40/5
f 15/34/5 6/40/5 18/39/5
f 6/40/5 15/34/5 3/35/5
f 25/43/3 23/42/3 29/41/3
f 23/42/3 25/43/3 24/44/3
f 31/47/1 20/46/1 30/45/1
f 20/46/1 31/47/1 17/48/1
f 26/11/3 30/10/3 32/9/3
f 30/10/3 26/11/3 31/12/3
f 31/12/3 26/11/3 33/13/3
f 28/14/3 33/13/3 26/11/3
f 34/15/3 33/13/3 28/14/3
f 33/13/3 34/15/3 35/16/3
f 11/51/5 36/50/5 10/49/5
f 36/50/5 11/51/5 37/52/5
f 22/55/4 38/54/4 21/53/4
f 38/54/4 22/55/4 27/56/4
f 39/7/2 11/57/2 12/5/2
f 11/57/2 39/7/2 37/58/2
f 4/19/4 39/18/4 2/17/4
f 39/18/4 4/19/4 37/20/4
f 37/20/4 4/19/4 36/21/4
f 8/22/4 36/21/4 4/19/4
f 7/23/4 36/21/4 8/22/4
f 36/21/4 7/23/4 40/24/4
f 27/61/1 29/60/1 38/59/1
f 29/60/1 27/61/1 25/62/1
f 10/63/1 40/2/1 9/1/1
f 40/2/1 10/63/1 36/64/1
f 14/67/2 33/66/2 35/65/2
f 33/66/2 14/67/2 16/68/2
f 28/69/1 13/46/1 34/45/1
f 13/46/1 28/69/1 15/70/1
f 19/67/2 26/71/2 32/65/2
f 26/71/2 19/67/2 18/72/2
f 33/75/5 17/74/5 31/73/5
f 17/74/5 33/75/5 16/76/5

usemtl glass

f 9/49/5 7/37/5 5/40/5
f 7/37/5 9/49/5 40/50/5
f 1/35/5 39/52/5 12/51/5
f 39/52/5 1/35/5 2/36/5
f 30/73/5 19/39/5 32/30/5
f 19/39/5 30/73/5 20/74/5
f 34/33/5 14/76/5 35/75/5
f 14/76/5 34/33/5 13/34/5

