# Created by Kenney (www.kenney.nl)

mtllib window5.mtl

g mergedBlocks

v -0.1693928 0.5 -0.49
v -0.1636208 0.4561579 -0.49
v -0.1693928 0.5 -0.47
v -0.1636208 0.4561579 -0.47
v -0.1069307 0.3147906 -0.47
v -0.1069307 0.3147906 -0.5
v -0.1512228 0.3487771 -0.47
v -0.1512228 0.3487771 -0.5
v -0.08469638 0.3533016 -0.47
v -0.1197788 0.3802212 -0.47
v -0.08469638 0.3533016 -0.49
v -0.1197788 0.3802212 -0.49
v 0.04384207 0.6636208 -0.47
v 0.04384207 0.6636208 -0.49
v -9.384848E-15 0.6693928 -0.47
v -1.010676E-14 0.6693928 -0.49
v 0.0553514 0.7065742 -0.47
v -9.384848E-15 0.7138613 -0.47
v 0.0553514 0.7065742 -0.5
v -1.010676E-14 0.7138613 -0.5
v -0.1466984 0.4153036 -0.49
v -0.1466984 0.4153036 -0.47
v 0.2065742 0.4446486 -0.5
v 0.1852094 0.3930693 -0.5
v 0.2065742 0.4446486 -0.47
v 0.1852094 0.3930693 -0.47
v 0.0553514 0.2934258 -0.47
v 0.0553514 0.2934258 -0.5
v -9.384848E-15 0.2861386 -0.47
v -1.010676E-14 0.2861386 -0.5
v 0.08469638 0.6466984 -0.47
v 0.08469638 0.6466984 -0.49
v 0.04384207 0.3363791 -0.47
v -9.384848E-15 0.3306072 -0.47
v 0.04384207 0.3363791 -0.49
v -1.010676E-14 0.3306072 -0.49
v -0.1466984 0.5846964 -0.49
v -0.1636208 0.5438421 -0.49
v -0.1466984 0.5846964 -0.47
v -0.1636208 0.5438421 -0.47
v -0.1069307 0.6852094 -0.47
v -0.1512228 0.6512228 -0.47
v -0.1069307 0.6852094 -0.5
v -0.1512228 0.6512228 -0.5
v -0.04384207 0.3363791 -0.47
v -0.04384207 0.3363791 -0.49
v -0.2065742 0.4446486 -0.5
v -0.2138614 0.5 -0.5
v -0.2065742 0.4446486 -0.47
v -0.2138614 0.5 -0.47
v -0.0553514 0.2934258 -0.47
v -0.0553514 0.2934258 -0.5
v 0.1069307 0.3147906 -0.47
v 0.1069307 0.3147906 -0.5
v 0.1197788 0.6197788 -0.47
v 0.1197788 0.6197788 -0.49
v -0.2065742 0.5553514 -0.5
v -0.1852094 0.6069307 -0.5
v -0.2065742 0.5553514 -0.47
v -0.1852094 0.6069307 -0.47
v 0.1466984 0.5846964 -0.49
v 0.1466984 0.5846964 -0.47
v 0.1852094 0.6069307 -0.5
v 0.2065742 0.5553514 -0.5
v 0.1852094 0.6069307 -0.47
v 0.2065742 0.5553514 -0.47
v -0.1197788 0.6197788 -0.49
v -0.1197788 0.6197788 -0.47
v -0.1852094 0.3930693 -0.5
v -0.1852094 0.3930693 -0.47
v 0.1512228 0.6512228 -0.5
v 0.1512228 0.6512228 -0.47
v 0.1069307 0.6852094 -0.47
v 0.1069307 0.6852094 -0.5
v 0.1512228 0.3487771 -0.47
v 0.08469638 0.3533016 -0.47
v 0.1197788 0.3802212 -0.47
v 0.1466984 0.4153036 -0.47
v 0.1636208 0.4561579 -0.47
v 0.2138614 0.5 -0.47
v 0.1693928 0.5 -0.47
v 0.1636208 0.5438421 -0.47
v -0.04384207 0.6636208 -0.47
v -0.08469638 0.6466984 -0.47
v -0.0553514 0.7065742 -0.47
v -0.0553514 0.7065742 -0.5
v 0.08469638 0.3533016 -0.49
v -0.08469638 0.6466984 -0.49
v 0.1197788 0.3802212 -0.49
v 0.1512228 0.3487771 -0.5
v 0.2138614 0.5 -0.5
v 0.1466984 0.4153036 -0.49
v 0.1636208 0.5438421 -0.49
v -0.04384207 0.6636208 -0.49
v 0.1636208 0.4561579 -0.49
v 0.1693928 0.5 -0.49

vn 1 0 0
vn 0.9659258 0.258819 0
vn -0.5 -0.8660254 0
vn -0.7071068 -0.7071068 0
vn 0.5 0.8660254 0
vn 0.7071068 0.7071068 0
vn -0.258819 -0.9659258 0
vn 0 -1 0
vn 0.258819 0.9659258 0
vn 0 1 0
vn 0.8660254 0.5 0
vn 0.9659258 -0.258819 0
vn 0.8660254 -0.5 0
vn 0.258819 -0.9659258 0
vn -0.258819 0.9659258 0
vn -0.5 0.8660254 0
vn -0.7071068 0.7071068 0
vn -0.9659258 -0.258819 0
vn -1 0 0
vn 0.5 -0.8660254 0
vn -0.9659258 0.258819 0
vn -0.8660254 0.5 0
vn -0.8660254 -0.5 0
vn 0.7071068 -0.7071068 0
vn 0 0 1

vt 0.49 0.5
vt 0.49 0.4561579
vt 0.47 0.5
vt 0.47 0.4561579
vt 0.1069307 0.47
vt 0.1069307 0.5
vt 0.1512228 0.47
vt 0.1512228 0.5
vt 0.08469638 -0.47
vt 0.1197788 -0.47
vt 0.08469638 -0.49
vt 0.1197788 -0.49
vt -0.04384207 0.47
vt -0.04384207 0.49
vt 9.384848E-15 0.47
vt 1.010676E-14 0.49
vt -0.0553514 -0.47
vt 9.384848E-15 -0.47
vt -0.0553514 -0.5
vt 1.010676E-14 -0.5
vt 0.49 0.4153036
vt 0.47 0.4153036
vt 0.5 0.4446486
vt 0.5 0.3930693
vt 0.47 0.4446486
vt 0.47 0.3930693
vt -0.0553514 0.47
vt -0.0553514 0.5
vt 1.010676E-14 0.5
vt -0.08469638 0.47
vt -0.08469638 0.49
vt -0.04384207 -0.47
vt -0.04384207 -0.49
vt 1.010676E-14 -0.49
vt 0.49 0.5846964
vt 0.49 0.5438421
vt 0.47 0.5846964
vt 0.47 0.5438421
vt 0.1069307 -0.47
vt 0.1512228 -0.47
vt 0.1069307 -0.5
vt 0.1512228 -0.5
vt 0.49 0.3802212
vt 0.47 0.3802212
vt 0.04384207 -0.47
vt 0.04384207 -0.49
vt -0.5 0.4446486
vt -0.5 0.5
vt -0.47 0.4446486
vt -0.47 0.5
vt 0.0553514 0.47
vt 0.0553514 0.5
vt -0.1069307 0.47
vt -0.1069307 0.5
vt -0.1197788 0.47
vt -0.1197788 0.49
vt -0.5 0.5553514
vt -0.5 0.6069307
vt -0.47 0.5553514
vt -0.47 0.6069307
vt -0.49 0.5846964
vt -0.49 0.6197788
vt -0.47 0.5846964
vt -0.47 0.6197788
vt 0.5 0.6069307
vt 0.5 0.5553514
vt 0.47 0.6069307
vt 0.47 0.5553514
vt 0.49 0.6197788
vt 0.47 0.6197788
vt -0.5 0.3930693
vt -0.47 0.3930693
vt 0.5 0.6512228
vt 0.47 0.6512228
vt -0.1069307 -0.47
vt -0.1069307 -0.5
vt -0.1512228 -0.47
vt -0.1512228 -0.5
vt -0.5 0.6512228
vt -0.47 0.6512228
vt -0.5 0.3487771
vt -0.47 0.3487771
vt 0.1069307 0.3147906
vt -9.384848E-15 0.3306072
vt 0.1512228 0.3487771
vt 0.04384207 0.3363791
vt 0.08469638 0.3533016
vt 0.1852094 0.3930693
vt 0.1197788 0.3802212
vt 0.1466984 0.4153036
vt 0.2065742 0.4446486
vt 0.1636208 0.4561579
vt 0.2138614 0.5
vt 0.1693928 0.5
vt 0.2065742 0.5553514
vt 0.1636208 0.5438421
vt 0.1466984 0.5846964
vt 0.1852094 0.6069307
vt 0.1197788 0.6197788
vt 0.1512228 0.6512228
vt 0.08469638 0.6466984
vt 0.04384207 0.6636208
vt 0.1069307 0.6852094
vt -9.384848E-15 0.6693928
vt -0.1069307 0.6852094
vt -0.04384207 0.6636208
vt -0.1512228 0.6512228
vt -0.08469638 0.6466984
vt -0.1197788 0.6197788
vt -0.1852094 0.6069307
vt -0.1466984 0.5846964
vt -0.2065742 0.5553514
vt -0.1636208 0.5438421
vt -0.1693928 0.5
vt -0.2138614 0.5
vt -0.1636208 0.4561579
vt -0.2065742 0.4446486
vt -0.1466984 0.4153036
vt -0.1852094 0.3930693
vt -0.1197788 0.3802212
vt -0.08469638 0.3533016
vt -0.1512228 0.3487771
vt -0.04384207 0.3363791
vt -0.1069307 0.3147906
vt 0.0553514 0.2934258
vt -0.0553514 0.2934258
vt -9.384848E-15 0.2861386
vt 0.0553514 0.7065742
vt -0.0553514 0.7065742
vt -9.384848E-15 0.7138613
vt 0.0553514 -0.47
vt 0.0553514 -0.5
vt -0.08469638 -0.47
vt -0.08469638 -0.49
vt 0.08469638 0.47
vt 0.08469638 0.49
vt 0.1197788 0.47
vt 0.1197788 0.49
vt -0.1197788 -0.47
vt -0.1197788 -0.49
vt 0.5 0.3487771
vt 0.47 0.3487771
vt 0.5 0.5
vt -0.1512228 0.47
vt -0.1512228 0.5
vt -0.49 0.3802212
vt -0.49 0.4153036
vt -0.47 0.3802212
vt -0.47 0.4153036
vt -0.49 0.5438421
vt -0.47 0.5438421
vt 0.04384207 0.47
vt 0.04384207 0.49
vt -0.49 0.4561579
vt -0.49 0.5
vt -0.47 0.4561579
vt -1.010676E-14 0.3306072
vt -1.010676E-14 0.6693928

usemtl metalLight

f 3/3/1 2/2/2 1/1/1
f 2/2/2 3/3/1 4/4/2
f 7/7/4 6/6/3 5/5/3
f 6/6/3 7/7/4 8/8/4
f 11/11/5 10/10/6 9/9/5
f 10/10/6 11/11/5 12/12/6
f 15/15/8 14/14/7 13/13/7
f 14/14/7 15/15/8 16/16/8
f 19/19/9 18/18/10 17/17/9
f 18/18/10 19/19/9 20/20/10
f 4/4/2 21/21/11 2/2/2
f 21/21/11 4/4/2 22/22/11
f 25/25/12 24/24/13 23/23/12
f 24/24/13 25/25/12 26/26/13
f 29/15/8 28/28/14 27/27/14
f 28/28/14 29/15/8 30/29/8
f 13/13/7 32/31/3 31/30/3
f 32/31/3 13/13/7 14/14/7
f 35/33/15 34/18/10 33/32/15
f 34/18/10 35/33/15 36/34/10
f 39/37/13 38/36/12 37/35/13
f 38/36/12 39/37/13 40/38/12
f 43/41/16 42/40/17 41/39/16
f 42/40/17 43/41/16 44/42/17
f 21/21/11 10/44/6 12/43/6
f 10/44/6 21/21/11 22/22/11
f 46/46/9 9/9/5 45/45/9
f 9/9/5 46/46/9 11/11/5
f 40/38/12 1/1/1 38/36/12
f 1/1/1 40/38/12 3/3/1
f 36/34/10 45/45/9 34/18/10
f 45/45/9 36/34/10 46/46/9
f 49/49/18 48/48/19 47/47/18
f 48/48/19 49/49/18 50/50/19
f 5/5/3 52/52/7 51/51/7
f 52/52/7 5/5/3 6/6/3
f 27/27/14 54/54/20 53/53/20
f 54/54/20 27/27/14 28/28/14
f 31/30/3 56/56/4 55/55/4
f 56/56/4 31/30/3 32/31/3
f 59/59/21 58/58/22 57/57/21
f 58/58/22 59/59/21 60/60/22
f 62/63/23 56/62/4 61/61/23
f 56/62/4 62/63/23 55/64/4
f 65/67/11 64/66/2 63/65/11
f 64/66/2 65/67/11 66/68/2
f 68/70/24 37/35/13 67/69/24
f 37/35/13 68/70/24 39/37/13
f 50/50/19 57/57/21 48/48/19
f 57/57/21 50/50/19 59/59/21
f 70/72/23 47/47/18 69/71/23
f 47/47/18 70/72/23 49/49/18
f 71/73/6 65/67/11 63/65/11
f 65/67/11 71/73/6 72/74/6
f 74/76/5 17/17/9 73/75/5
f 17/17/9 74/76/5 19/19/9
f 71/78/6 73/75/5 72/77/6
f 73/75/5 71/78/6 74/76/5
f 60/60/22 44/79/17 58/58/22
f 44/79/17 60/60/22 42/80/17
f 51/51/7 30/29/8 29/15/8
f 30/29/8 51/51/7 52/52/7
f 7/82/4 69/71/23 8/81/4
f 69/71/23 7/82/4 70/72/23
f 75/85/25 34/84/25 53/83/25
f 34/84/25 75/85/25 33/86/25
f 33/86/25 75/85/25 76/87/25
f 76/87/25 75/85/25 26/88/25
f 76/87/25 26/88/25 77/89/25
f 77/89/25 26/88/25 78/90/25
f 78/90/25 26/88/25 25/91/25
f 78/90/25 25/91/25 79/92/25
f 79/92/25 25/91/25 80/93/25
f 79/92/25 80/93/25 81/94/25
f 81/94/25 80/93/25 66/95/25
f 81/94/25 66/95/25 82/96/25
f 82/96/25 66/95/25 62/97/25
f 62/97/25 66/95/25 65/98/25
f 62/97/25 65/98/25 55/99/25
f 55/99/25 65/98/25 72/100/25
f 55/99/25 72/100/25 31/101/25
f 31/101/25 72/100/25 13/102/25
f 13/102/25 72/100/25 73/103/25
f 13/102/25 73/103/25 15/104/25
f 41/105/25 15/104/25 73/103/25
f 41/105/25 83/106/25 15/104/25
f 42/107/25 83/106/25 41/105/25
f 42/107/25 84/108/25 83/106/25
f 42/107/25 68/109/25 84/108/25
f 60/110/25 68/109/25 42/107/25
f 60/110/25 39/111/25 68/109/25
f 59/112/25 39/111/25 60/110/25
f 59/112/25 40/113/25 39/111/25
f 59/112/25 3/114/25 40/113/25
f 50/115/25 3/114/25 59/112/25
f 50/115/25 4/116/25 3/114/25
f 49/117/25 4/116/25 50/115/25
f 49/117/25 22/118/25 4/116/25
f 70/119/25 22/118/25 49/117/25
f 70/119/25 10/120/25 22/118/25
f 70/119/25 9/121/25 10/120/25
f 7/122/25 9/121/25 70/119/25
f 7/122/25 45/123/25 9/121/25
f 7/122/25 34/84/25 45/123/25
f 7/122/25 53/83/25 34/84/25
f 5/124/25 53/83/25 7/122/25
f 5/124/25 27/125/25 53/83/25
f 51/126/25 27/125/25 5/124/25
f 27/125/25 51/126/25 29/127/25
f 41/105/25 73/103/25 17/128/25
f 41/105/25 17/128/25 85/129/25
f 85/129/25 17/128/25 18/130/25
f 86/132/15 41/39/16 85/131/15
f 41/39/16 86/132/15 43/41/16
f 87/134/16 33/32/15 76/133/16
f 33/32/15 87/134/16 35/33/15
f 20/20/10 85/131/15 18/18/10
f 85/131/15 20/20/10 86/132/15
f 68/137/24 88/136/20 84/135/20
f 88/136/20 68/137/24 67/138/24
f 89/140/17 76/133/16 77/139/17
f 76/133/16 89/140/17 87/134/16
f 26/26/13 90/141/24 24/24/13
f 90/141/24 26/26/13 75/142/24
f 66/68/2 91/143/1 64/66/2
f 91/143/1 66/68/2 80/3/1
f 53/53/20 90/145/24 75/144/24
f 90/145/24 53/53/20 54/54/20
f 77/148/17 92/147/22 89/146/17
f 92/147/22 77/148/17 78/149/22
f 82/151/18 61/61/23 93/150/18
f 61/61/23 82/151/18 62/63/23
f 80/3/1 23/23/12 91/143/1
f 23/23/12 80/3/1 25/25/12
f 83/152/14 16/16/8 15/15/8
f 16/16/8 83/152/14 94/153/14
f 79/156/21 96/155/19 95/154/21
f 96/155/19 79/156/21 81/50/19
f 84/135/20 94/153/14 83/152/14
f 94/153/14 84/135/20 88/136/20
f 92/147/22 79/156/21 95/154/21
f 79/156/21 92/147/22 78/149/22
f 81/50/19 93/150/18 96/155/19
f 93/150/18 81/50/19 82/151/18

usemtl glass

f 35/86/25 46/123/25 36/157/25
f 46/123/25 35/86/25 87/87/25
f 46/123/25 87/87/25 11/121/25
f 11/121/25 87/87/25 12/120/25
f 12/120/25 87/87/25 89/89/25
f 12/120/25 89/89/25 92/90/25
f 12/120/25 92/90/25 21/118/25
f 21/118/25 92/90/25 2/116/25
f 2/116/25 92/90/25 95/92/25
f 2/116/25 95/92/25 96/94/25
f 2/116/25 96/94/25 1/114/25
f 1/114/25 96/94/25 93/96/25
f 1/114/25 93/96/25 38/113/25
f 38/113/25 93/96/25 37/111/25
f 37/111/25 93/96/25 61/97/25
f 37/111/25 61/97/25 67/109/25
f 67/109/25 61/97/25 56/99/25
f 67/109/25 56/99/25 32/101/25
f 67/109/25 32/101/25 88/108/25
f 88/108/25 32/101/25 94/106/25
f 94/106/25 32/101/25 14/102/25
f 94/106/25 14/102/25 16/158/25

