# Created by Kenney (www.kenney.nl)

mtllib window9.mtl

g mergedBlocks

v -0.09300302 0.693845 -0.47
v -0.339009 0.693845 -0.47
v -0.09300302 0.693845 -0.5
v -0.339009 0.693845 -0.5
v -0.09300302 0.3061549 -0.47
v -0.09300302 0.3061549 -0.5
v -0.339009 0.3061549 -0.47
v -0.339009 0.3061549 -0.5
v -0.1362001 0.349352 -0.47
v -0.1362001 0.650648 -0.47
v -0.295812 0.650648 -0.47
v -0.295812 0.349352 -0.47
v -0.1362001 0.650648 -0.49
v -0.295812 0.650648 -0.49
v -0.1362001 0.349352 -0.49
v -0.295812 0.349352 -0.49
v 0.093003 0.3061549 -0.47
v 0.295812 0.349352 -0.47
v 0.339009 0.3061549 -0.47
v 0.339009 0.693845 -0.47
v 0.295812 0.650648 -0.47
v 0.1362001 0.650648 -0.47
v 0.1362001 0.349352 -0.47
v 0.093003 0.693845 -0.47
v 0.1362001 0.650648 -0.49
v 0.1362001 0.349352 -0.49
v 0.295812 0.650648 -0.49
v 0.339009 0.693845 -0.5
v 0.339009 0.3061549 -0.5
v 0.093003 0.3061549 -0.5
v 0.093003 0.693845 -0.5
v 0.295812 0.349352 -0.49

vn 0 1 0
vn 0 -1 0
vn 0 0 1
vn -1 0 0
vn 1 0 0

vt 0.09300302 -0.47
vt 0.339009 -0.47
vt 0.09300302 -0.5
vt 0.339009 -0.5
vt 0.09300302 0.47
vt 0.09300302 0.5
vt 0.339009 0.47
vt 0.339009 0.5
vt -0.339009 0.3061549
vt -0.1362001 0.349352
vt -0.09300302 0.3061549
vt -0.09300302 0.693845
vt -0.1362001 0.650648
vt -0.295812 0.650648
vt -0.295812 0.349352
vt -0.339009 0.693845
vt -0.5 0.3061549
vt -0.5 0.693845
vt -0.47 0.3061549
vt -0.47 0.693845
vt 0.1362001 0.47
vt 0.1362001 0.49
vt 0.295812 0.47
vt 0.295812 0.49
vt 0.1362001 -0.47
vt 0.295812 -0.47
vt 0.1362001 -0.49
vt 0.295812 -0.49
vt 0.093003 0.3061549
vt 0.295812 0.349352
vt 0.339009 0.3061549
vt 0.339009 0.693845
vt 0.295812 0.650648
vt 0.1362001 0.650648
vt 0.1362001 0.349352
vt 0.093003 0.693845
vt 0.49 0.650648
vt 0.49 0.349352
vt 0.47 0.650648
vt 0.47 0.349352
vt -0.295812 0.47
vt -0.295812 0.49
vt -0.1362001 0.47
vt -0.1362001 0.49
vt 0.5 0.693845
vt 0.5 0.3061549
vt 0.47 0.693845
vt 0.47 0.3061549
vt -0.339009 0.47
vt -0.339009 0.5
vt -0.093003 0.47
vt -0.093003 0.5
vt -0.295812 -0.47
vt -0.1362001 -0.47
vt -0.295812 -0.49
vt -0.1362001 -0.49
vt -0.339009 -0.47
vt -0.093003 -0.47
vt -0.339009 -0.5
vt -0.093003 -0.5
vt -0.49 0.349352
vt -0.49 0.650648
vt -0.47 0.349352
vt -0.47 0.650648

usemtl metalLight

f 3/3/1 2/2/1 1/1/1
f 2/2/1 3/3/1 4/4/1
f 7/7/2 6/6/2 5/5/2
f 6/6/2 7/7/2 8/8/2
f 5/11/3 9/10/3 7/9/3
f 9/10/3 5/11/3 1/12/3
f 9/10/3 1/12/3 10/13/3
f 10/13/3 1/12/3 11/14/3
f 12/15/3 7/9/3 9/10/3
f 7/9/3 12/15/3 2/16/3
f 2/16/3 12/15/3 11/14/3
f 2/16/3 11/14/3 1/12/3
f 7/19/4 4/18/4 8/17/4
f 4/18/4 7/19/4 2/20/4
f 11/23/2 13/22/2 10/21/2
f 13/22/2 11/23/2 14/24/2
f 15/27/1 12/26/1 9/25/1
f 12/26/1 15/27/1 16/28/1
f 19/31/3 18/30/3 17/29/3
f 18/30/3 19/31/3 20/32/3
f 18/30/3 20/32/3 21/33/3
f 21/33/3 20/32/3 22/34/3
f 23/35/3 17/29/3 18/30/3
f 17/29/3 23/35/3 24/36/3
f 24/36/3 23/35/3 22/34/3
f 24/36/3 22/34/3 20/32/3
f 11/39/5 16/38/5 14/37/5
f 16/38/5 11/39/5 12/40/5
f 22/39/5 26/38/5 25/37/5
f 26/38/5 22/39/5 23/40/5
f 22/43/2 27/42/2 21/41/2
f 27/42/2 22/43/2 25/44/2
f 20/47/5 29/46/5 28/45/5
f 29/46/5 20/47/5 19/48/5
f 17/19/4 31/18/4 30/17/4
f 31/18/4 17/19/4 24/20/4
f 17/51/2 29/50/2 19/49/2
f 29/50/2 17/51/2 30/52/2
f 32/55/1 23/54/1 18/53/1
f 23/54/1 32/55/1 26/56/1
f 28/59/1 24/58/1 20/57/1
f 24/58/1 28/59/1 31/60/1
f 1/47/5 6/46/5 3/45/5
f 6/46/5 1/47/5 5/48/5
f 9/63/4 13/62/4 15/61/4
f 13/62/4 9/63/4 10/64/4
f 18/63/4 27/62/4 32/61/4
f 27/62/4 18/63/4 21/64/4

usemtl glass

f 13/13/3 16/15/3 15/10/3
f 16/15/3 13/13/3 14/14/3
f 27/33/3 26/35/3 32/30/3
f 26/35/3 27/33/3 25/34/3

