# Created by Kenney (www.kenney.nl)

mtllib window1.mtl

g mergedBlocks

v 0.1198059 0.4685265 -0.49
v -0.1198059 0.4685265 -0.49
v 0.1198059 0.4685265 -0.48
v -0.1198059 0.4685265 -0.48
v 0.1198059 0.269352 -0.49
v 0.1198059 0.269352 -0.47
v -0.1198059 0.269352 -0.49
v -0.1198059 0.269352 -0.47
v 0.163003 0.2261549 -0.5
v -0.163003 0.2261549 -0.5
v 0.163003 0.2261549 -0.47
v -0.163003 0.2261549 -0.47
v 0.163003 0.7738451 -0.47
v 0.1198059 0.730648 -0.47
v -0.1198059 0.730648 -0.47
v -0.163003 0.7738451 -0.47
v 0.163003 0.7738451 -0.5
v 0.1198059 0.5285265 -0.49
v 0.1198059 0.5285265 -0.48
v -0.1198059 0.5285265 -0.49
v -0.1198059 0.5285265 -0.48
v -0.163003 0.7738451 -0.5
v 0.1198059 0.730648 -0.49
v -0.1198059 0.730648 -0.49

vn 0 -1 0
vn 0 1 0
vn 0 0 1
vn 1 0 0
vn -1 0 0

vt -0.1198059 0.49
vt 0.1198059 0.49
vt -0.1198059 0.48
vt 0.1198059 0.48
vt -0.1198059 -0.49
vt -0.1198059 -0.47
vt 0.1198059 -0.49
vt 0.1198059 -0.47
vt -0.163003 0.5
vt 0.163003 0.5
vt -0.163003 0.47
vt 0.163003 0.47
vt -0.163003 0.2261549
vt 0.1198059 0.269352
vt 0.163003 0.2261549
vt 0.163003 0.7738451
vt 0.1198059 0.730648
vt -0.1198059 0.730648
vt -0.1198059 0.269352
vt -0.163003 0.7738451
vt 0.5 0.7738451
vt 0.5 0.2261549
vt 0.47 0.7738451
vt 0.47 0.2261549
vt -0.1198059 -0.48
vt 0.1198059 -0.48
vt 0.1198059 0.4685265
vt -0.1198059 0.4685265
vt 0.1198059 0.5285265
vt -0.1198059 0.5285265
vt -0.5 0.2261549
vt -0.5 0.7738451
vt -0.47 0.2261549
vt -0.47 0.7738451
vt -0.1198059 0.47
vt 0.1198059 0.47
vt -0.163003 -0.5
vt -0.163003 -0.47
vt 0.163003 -0.5
vt 0.163003 -0.47
vt -0.49 0.269352
vt -0.49 0.4685265
vt -0.47 0.269352
vt -0.48 0.4685265
vt -0.48 0.5285265
vt -0.47 0.730648
vt -0.49 0.730648
vt -0.49 0.5285265
vt 0.49 0.730648
vt 0.49 0.5285265
vt 0.47 0.730648
vt 0.48 0.5285265
vt 0.48 0.4685265
vt 0.47 0.269352
vt 0.49 0.269352
vt 0.49 0.4685265

usemtl metalLight

f 3/3/1 2/2/1 1/1/1
f 2/2/1 3/3/1 4/4/1
f 7/7/2 6/6/2 5/5/2
f 6/6/2 7/7/2 8/8/2
f 11/11/1 10/10/1 9/9/1
f 10/10/1 11/11/1 12/12/1
f 11/15/3 6/14/3 12/13/3
f 6/14/3 11/15/3 13/16/3
f 6/14/3 13/16/3 14/17/3
f 14/17/3 13/16/3 15/18/3
f 8/19/3 12/13/3 6/14/3
f 12/13/3 8/19/3 16/20/3
f 16/20/3 8/19/3 15/18/3
f 16/20/3 15/18/3 13/16/3
f 13/23/4 9/22/4 17/21/4
f 9/22/4 13/23/4 11/24/4
f 20/7/2 19/25/2 18/5/2
f 19/25/2 20/7/2 21/26/2
f 19/29/3 4/28/3 3/27/3
f 4/28/3 19/29/3 21/30/3
f 12/33/5 22/32/5 10/31/5
f 22/32/5 12/33/5 16/34/5
f 14/35/1 24/2/1 23/1/1
f 24/2/1 14/35/1 15/36/1
f 22/39/2 13/38/2 17/37/2
f 13/38/2 22/39/2 16/40/2
f 6/43/5 1/42/5 5/41/5
f 1/42/5 6/43/5 3/44/5
f 3/44/5 6/43/5 19/45/5
f 14/46/5 19/45/5 6/43/5
f 23/47/5 19/45/5 14/46/5
f 19/45/5 23/47/5 18/48/5
f 15/51/4 20/50/4 24/49/4
f 20/50/4 15/51/4 21/52/4
f 21/52/4 15/51/4 4/53/4
f 8/54/4 4/53/4 15/51/4
f 7/55/4 4/53/4 8/54/4
f 4/53/4 7/55/4 2/56/4

usemtl glass

f 23/17/3 20/30/3 18/29/3
f 20/30/3 23/17/3 24/18/3
f 1/27/3 7/19/3 5/14/3
f 7/19/3 1/27/3 2/28/3

