# Created by Kenney (www.kenney.nl)

mtllib window3.mtl

g mergedBlocks

v 0.339009 0.3061549 -0.5
v 0.09300301 0.3061549 -0.5
v 0.339009 0.3061549 -0.47
v 0.09300301 0.3061549 -0.47
v -0.295812 0.650648 -0.49
v -0.295812 0.5444756 -0.49
v -0.295812 0.650648 -0.47
v -0.295812 0.5444756 -0.48
v -0.295812 0.5169075 -0.48
v -0.295812 0.349352 -0.47
v -0.295812 0.349352 -0.49
v -0.295812 0.5169075 -0.49
v 0.09300301 0.693845 -0.5
v 0.09300301 0.693845 -0.47
v -0.339009 0.3061549 -0.5
v -0.339009 0.693845 -0.5
v -0.339009 0.3061549 -0.47
v -0.339009 0.693845 -0.47
v -0.1362001 0.349352 -0.49
v -0.1362001 0.349352 -0.47
v -0.1362001 0.5169075 -0.49
v -0.1362001 0.5169075 -0.48
v -0.1362001 0.5444756 -0.48
v -0.1362001 0.650648 -0.47
v -0.1362001 0.650648 -0.49
v -0.1362001 0.5444756 -0.49
v -0.2297901 0.5444756 -0.49
v -0.2297901 0.5444756 -0.48
v 0.295812 0.5444756 -0.49
v 0.295812 0.5444756 -0.48
v 0.2297901 0.5444756 -0.49
v 0.2297901 0.5444756 -0.48
v 0.295812 0.349352 -0.49
v 0.295812 0.5169075 -0.49
v 0.295812 0.349352 -0.47
v 0.295812 0.5169075 -0.48
v 0.295812 0.650648 -0.47
v 0.295812 0.650648 -0.49
v -0.09300301 0.3061549 -0.5
v -0.09300301 0.3061549 -0.47
v -0.09300301 0.693845 -0.47
v -0.09300301 0.693845 -0.5
v -0.202222 0.650648 -0.49
v -0.202222 0.650648 -0.48
v -0.2297901 0.650648 -0.48
v -0.2297901 0.650648 -0.49
v 0.2297901 0.650648 -0.49
v 0.2297901 0.650648 -0.48
v 0.1362001 0.650648 -0.47
v 0.202222 0.650648 -0.48
v 0.1362001 0.650648 -0.49
v 0.202222 0.650648 -0.49
v 0.1362001 0.349352 -0.49
v 0.1362001 0.349352 -0.47
v 0.202222 0.5444756 -0.49
v 0.202222 0.5444756 -0.48
v -0.202222 0.5444756 -0.48
v 0.1362001 0.5444756 -0.49
v 0.1362001 0.5444756 -0.48
v 0.1362001 0.5169075 -0.48
v 0.339009 0.693845 -0.5
v 0.339009 0.693845 -0.47
v -0.202222 0.5444756 -0.49
v 0.1362001 0.5169075 -0.49

vn 0 -1 0
vn 1 0 0
vn -1 0 0
vn 0 1 0
vn 0 0 1

vt -0.339009 0.5
vt -0.09300301 0.5
vt -0.339009 0.47
vt -0.09300301 0.47
vt 0.49 0.650648
vt 0.49 0.5444756
vt 0.47 0.650648
vt 0.48 0.5444756
vt 0.48 0.5169075
vt 0.47 0.349352
vt 0.49 0.349352
vt 0.49 0.5169075
vt -0.5 0.3061549
vt -0.5 0.693845
vt -0.47 0.3061549
vt -0.47 0.693845
vt 0.1362001 -0.49
vt 0.1362001 -0.47
vt 0.295812 -0.49
vt 0.295812 -0.47
vt -0.49 0.349352
vt -0.49 0.5169075
vt -0.47 0.349352
vt -0.48 0.5169075
vt -0.48 0.5444756
vt -0.47 0.650648
vt -0.49 0.650648
vt -0.49 0.5444756
vt 0.2297901 -0.49
vt 0.2297901 -0.48
vt 0.295812 -0.48
vt -0.295812 -0.49
vt -0.295812 -0.48
vt -0.2297901 -0.49
vt -0.2297901 -0.48
vt 0.09300301 0.5
vt 0.339009 0.5
vt 0.09300301 0.47
vt 0.339009 0.47
vt -0.339009 0.3061549
vt -0.1362001 0.349352
vt -0.09300301 0.3061549
vt -0.09300301 0.693845
vt -0.1362001 0.650648
vt -0.295812 0.650648
vt -0.295812 0.349352
vt -0.339009 0.693845
vt 0.5 0.693845
vt 0.5 0.3061549
vt 0.47 0.693845
vt 0.47 0.3061549
vt 0.1362001 0.49
vt 0.202222 0.49
vt 0.1362001 0.47
vt 0.202222 0.48
vt 0.295812 0.47
vt 0.2297901 0.48
vt 0.295812 0.49
vt 0.2297901 0.49
vt -0.295812 0.49
vt -0.2297901 0.49
vt -0.295812 0.47
vt -0.2297901 0.48
vt -0.1362001 0.47
vt -0.202222 0.48
vt -0.1362001 0.49
vt -0.202222 0.49
vt -0.295812 -0.47
vt -0.1362001 -0.49
vt -0.1362001 -0.47
vt -0.48 0.650648
vt 0.09300301 -0.5
vt 0.09300301 -0.47
vt 0.339009 -0.5
vt 0.339009 -0.47
vt 0.1362001 0.48
vt 0.295812 0.48
vt -0.202222 0.5444756
vt -0.2297901 0.5444756
vt -0.202222 0.650648
vt -0.2297901 0.650648
vt -0.295812 0.5444756
vt -0.1362001 0.5444756
vt -0.295812 0.5169075
vt -0.1362001 0.5169075
vt -0.202222 -0.49
vt -0.202222 -0.48
vt -0.1362001 -0.48
vt 0.2297901 0.5444756
vt 0.202222 0.5444756
vt 0.2297901 0.650648
vt 0.202222 0.650648
vt 0.1362001 0.5444756
vt 0.295812 0.5444756
vt 0.1362001 0.5169075
vt 0.295812 0.5169075
vt 0.1362001 -0.48
vt 0.202222 -0.49
vt 0.202222 -0.48
vt 0.48 0.650648
vt -0.295812 0.48
vt -0.1362001 0.48
vt -0.339009 -0.5
vt -0.339009 -0.47
vt -0.09300301 -0.5
vt -0.09300301 -0.47
vt 0.09300301 0.3061549
vt 0.295812 0.349352
vt 0.339009 0.3061549
vt 0.339009 0.693845
vt 0.295812 0.650648
vt 0.1362001 0.650648
vt 0.1362001 0.349352
vt 0.09300301 0.693845

usemtl metalLight

f 3/3/1 2/2/1 1/1/1
f 2/2/1 3/3/1 4/4/1
f 7/7/2 6/6/2 5/5/2
f 6/6/2 7/7/2 8/8/2
f 8/8/2 7/7/2 9/9/2
f 10/10/2 9/9/2 7/7/2
f 11/11/2 9/9/2 10/10/2
f 9/9/2 11/11/2 12/12/2
f 4/15/3 13/14/3 2/13/3
f 13/14/3 4/15/3 14/16/3
f 17/15/3 16/14/3 15/13/3
f 16/14/3 17/15/3 18/16/3
f 11/19/4 20/18/4 19/17/4
f 20/18/4 11/19/4 10/20/4
f 20/23/3 21/22/3 19/21/3
f 21/22/3 20/23/3 22/24/3
f 22/24/3 20/23/3 23/25/3
f 24/26/3 23/25/3 20/23/3
f 25/27/3 23/25/3 24/26/3
f 23/25/3 25/27/3 26/28/3
f 6/19/4 28/30/4 27/29/4
f 28/30/4 6/19/4 8/31/4
f 31/34/4 30/33/4 29/32/4
f 30/33/4 31/34/4 32/35/4
f 35/23/3 34/22/3 33/21/3
f 34/22/3 35/23/3 36/24/3
f 36/24/3 35/23/3 30/25/3
f 37/26/3 30/25/3 35/23/3
f 38/27/3 30/25/3 37/26/3
f 30/25/3 38/27/3 29/28/3
f 40/38/1 15/37/1 39/36/1
f 15/37/1 40/38/1 17/39/1
f 40/42/5 20/41/5 17/40/5
f 20/41/5 40/42/5 41/43/5
f 20/41/5 41/43/5 24/44/5
f 24/44/5 41/43/5 7/45/5
f 10/46/5 17/40/5 20/41/5
f 17/40/5 10/46/5 18/47/5
f 18/47/5 10/46/5 7/45/5
f 18/47/5 7/45/5 41/43/5
f 41/50/2 39/49/2 42/48/2
f 39/49/2 41/50/2 40/51/2
f 24/54/1 43/53/1 25/52/1
f 43/53/1 24/54/1 44/55/1
f 44/55/1 24/54/1 7/56/1
f 44/55/1 7/56/1 45/57/1
f 45/57/1 7/56/1 5/58/1
f 5/58/1 46/59/1 45/57/1
f 37/62/1 47/61/1 38/60/1
f 47/61/1 37/62/1 48/63/1
f 48/63/1 37/62/1 49/64/1
f 48/63/1 49/64/1 50/65/1
f 50/65/1 49/64/1 51/66/1
f 51/66/1 52/67/1 50/65/1
f 53/69/4 35/68/4 33/32/4
f 35/68/4 53/69/4 54/70/4
f 56/25/3 52/27/3 55/28/3
f 52/27/3 56/25/3 50/71/3
f 16/74/4 41/73/4 42/72/4
f 41/73/4 16/74/4 18/75/4
f 22/76/1 12/58/1 21/52/1
f 12/58/1 22/76/1 9/77/1
f 44/80/5 28/79/5 57/78/5
f 28/79/5 44/80/5 45/81/5
f 8/82/5 57/78/5 28/79/5
f 8/82/5 23/83/5 57/78/5
f 9/84/5 23/83/5 8/82/5
f 23/83/5 9/84/5 22/85/5
f 58/69/4 56/87/4 55/86/4
f 56/87/4 58/69/4 59/88/4
f 48/91/5 56/90/5 32/89/5
f 56/90/5 48/91/5 50/92/5
f 59/93/5 32/89/5 56/90/5
f 59/93/5 30/94/5 32/89/5
f 60/95/5 30/94/5 59/93/5
f 30/94/5 60/95/5 36/96/5
f 62/50/2 1/49/2 61/48/2
f 1/49/2 62/50/2 3/51/2
f 28/25/3 46/27/3 27/28/3
f 46/27/3 28/25/3 45/71/3
f 63/98/4 23/97/4 26/17/4
f 23/97/4 63/98/4 57/99/4
f 44/100/2 63/6/2 43/5/2
f 63/6/2 44/100/2 57/8/2
f 36/101/1 64/66/1 34/60/1
f 64/66/1 36/101/1 60/102/1
f 48/100/2 31/6/2 47/5/2
f 31/6/2 48/100/2 32/8/2
f 13/105/4 62/104/4 61/103/4
f 62/104/4 13/105/4 14/106/4
f 49/7/2 58/6/2 51/5/2
f 58/6/2 49/7/2 59/8/2
f 59/8/2 49/7/2 60/9/2
f 54/10/2 60/9/2 49/7/2
f 53/11/2 60/9/2 54/10/2
f 60/9/2 53/11/2 64/12/2
f 3/109/5 35/108/5 4/107/5
f 35/108/5 3/109/5 62/110/5
f 35/108/5 62/110/5 37/111/5
f 37/111/5 62/110/5 49/112/5
f 54/113/5 4/107/5 35/108/5
f 4/107/5 54/113/5 14/114/5
f 14/114/5 54/113/5 49/112/5
f 14/114/5 49/112/5 62/110/5

usemtl glass

f 25/44/5 63/78/5 26/83/5
f 63/78/5 25/44/5 43/80/5
f 52/92/5 58/93/5 55/90/5
f 58/93/5 52/92/5 51/112/5
f 38/111/5 31/89/5 29/94/5
f 31/89/5 38/111/5 47/91/5
f 46/81/5 6/82/5 27/79/5
f 6/82/5 46/81/5 5/45/5
f 21/85/5 11/46/5 19/41/5
f 11/46/5 21/85/5 12/84/5
f 34/96/5 53/113/5 33/108/5
f 53/113/5 34/96/5 64/95/5

