# Created by Kenney (www.kenney.nl)

mtllib window7.mtl

g mergedBlocks

v -0.0847156 0.6132421 -0.49
v -0.103755 0.5884295 -0.49
v -0.0847156 0.6132421 -0.47
v -0.103755 0.5884295 -0.47
v -0.04218829 0.6859754 -0.47
v -0.08150151 0.6696913 -0.47
v -0.04218829 0.6859754 -0.5
v -0.08150151 0.6696913 -0.5
v 0.163003 0.5285265 -0.5
v 0.163003 0.2261549 -0.5
v 0.163003 0.5285265 -0.47
v 0.163003 0.2261549 -0.47
v 0.1574488 0.5707148 -0.5
v 0.1574488 0.5707148 -0.47
v -0.1574488 0.5707148 -0.5
v -0.1574488 0.5707148 -0.47
v -0.163003 0.5285265 -0.5
v -0.163003 0.5285265 -0.47
v 0.1198059 0.4685265 -0.48
v -0.1198059 0.4685265 -0.48
v 0.1198059 0.5285265 -0.48
v -0.1198059 0.5285265 -0.48
v 0.0815015 0.6696913 -0.47
v 0.04218828 0.6859754 -0.47
v 0.0815015 0.6696913 -0.5
v 0.04218828 0.6859754 -0.5
v 0.1198059 0.5285265 -0.49
v 0.1157237 0.5595346 -0.49
v 0.1157237 0.5595346 -0.47
v 0.1198059 0.5285265 -0.47
v 0.1411647 0.6100281 -0.5
v 0.1411647 0.6100281 -0.47
v 0.1152605 0.6437871 -0.5
v 0.1152605 0.6437871 -0.47
v -0.1152605 0.6437871 -0.47
v -0.1152605 0.6437871 -0.5
v 0.103755 0.5884295 -0.49
v 0.103755 0.5884295 -0.47
v -0.1198059 0.5285265 -0.47
v -0.1198059 0.269352 -0.47
v -0.1198059 0.269352 -0.49
v -0.1198059 0.4685265 -0.49
v -6.110983E-09 0.6483325 -0.47
v -6.409008E-09 0.6483325 -0.49
v -0.03100807 0.6442502 -0.47
v -0.03100807 0.6442502 -0.49
v -5.789139E-09 0.6915296 -0.47
v -6.236177E-09 0.6915296 -0.5
v -0.163003 0.2261549 -0.5
v -0.163003 0.2261549 -0.47
v 0.08471559 0.6132421 -0.47
v 0.08471559 0.6132421 -0.49
v 0.05990297 0.6322815 -0.47
v 0.05990297 0.6322815 -0.49
v -0.1198059 0.5285265 -0.49
v 0.03100805 0.6442502 -0.47
v 0.03100805 0.6442502 -0.49
v 0.1198059 0.269352 -0.49
v 0.1198059 0.4685265 -0.49
v 0.1198059 0.269352 -0.47
v -0.05990298 0.6322815 -0.47
v -0.05990298 0.6322815 -0.49
v -0.1157237 0.5595346 -0.49
v -0.1157237 0.5595346 -0.47
v -0.1411648 0.6100281 -0.5
v -0.1411648 0.6100281 -0.47

vn 0.7071068 -0.7071068 0
vn 0.8660254 -0.5 0
vn -0.258819 0.9659258 0
vn -0.5 0.8660254 0
vn 0.9978589 0.06540313 0
vn 1 0 0
vn 0.9659258 0.258819 0
vn -0.9659258 0.258819 0
vn -0.9978589 0.06540313 0
vn 0 0 1
vn 0.5 0.8660254 0
vn 0.258819 0.9659258 0
vn -0.9914449 -0.1305262 0
vn -0.9659258 -0.258819 0
vn -0.9961922 -0.08718336 0
vn -0.9978589 -0.06540313 0
vn 0.8660254 0.5 0
vn 0.7071068 0.7071068 0
vn -0.7071068 0.7071068 0
vn -0.8660254 -0.5 0
vn 0.9961922 -0.08718336 0
vn 0.9978589 -0.06540313 0
vn 0 -1 0
vn 0.258819 -0.9659258 0
vn 0 1 0
vn -1 0 0
vn -0.7071068 -0.7071068 0
vn -0.5 -0.8660254 0
vn -0.258819 -0.9659258 0
vn 0.5 -0.8660254 0
vn 0.9659258 -0.258819 0
vn 0.9914449 -0.1305262 0
vn -0.8660254 0.5 0

vt 0.49 0.6132421
vt 0.49 0.5884295
vt 0.47 0.6132421
vt 0.47 0.5884295
vt 0.04218829 -0.47
vt 0.08150151 -0.47
vt 0.04218829 -0.5
vt 0.08150151 -0.5
vt 0.5 0.5285265
vt 0.5 0.2261549
vt 0.47 0.5285265
vt 0.47 0.2261549
vt 0.5 0.5707148
vt 0.47 0.5707148
vt -0.5 0.5707148
vt -0.47 0.5707148
vt -0.5 0.5285265
vt -0.47 0.5285265
vt 0.1198059 0.4685265
vt -0.1198059 0.4685265
vt 0.1198059 0.5285265
vt -0.1198059 0.5285265
vt -0.0815015 -0.47
vt -0.04218828 -0.47
vt -0.0815015 -0.5
vt -0.04218828 -0.5
vt -0.49 0.5285265
vt -0.49 0.5595346
vt -0.48 0.5285265
vt -0.47 0.5595346
vt 0.5 0.6100281
vt 0.47 0.6100281
vt 0.5 0.6437871
vt 0.47 0.6437871
vt 0.1152605 -0.47
vt 0.1152605 -0.5
vt -0.49 0.5884295
vt -0.47 0.5884295
vt 0.48 0.5285265
vt 0.48 0.4685265
vt 0.47 0.269352
vt 0.49 0.269352
vt 0.49 0.4685265
vt 6.110983E-09 0.47
vt 6.409008E-09 0.49
vt 0.03100807 0.47
vt 0.03100807 0.49
vt 5.789139E-09 -0.47
vt 6.236177E-09 -0.5
vt -0.5 0.2261549
vt -0.47 0.2261549
vt -0.08471559 0.47
vt -0.08471559 0.49
vt -0.05990297 0.47
vt -0.05990297 0.49
vt -0.1198059 -0.48
vt 0.1198059 -0.48
vt -0.1198059 -0.49
vt 0.1198059 -0.49
vt -0.03100805 0.47
vt -0.03100805 0.49
vt -0.1152605 -0.47
vt -0.1152605 -0.5
vt -0.49 0.269352
vt -0.49 0.4685265
vt -0.47 0.269352
vt -0.48 0.4685265
vt 0.05990298 0.47
vt 0.05990298 0.49
vt -0.49 0.6132421
vt -0.47 0.6132421
vt 0.0847156 0.47
vt 0.0847156 0.49
vt 0.49 0.5595346
vt 0.49 0.5285265
vt 0.47 0.5595346
vt -0.163003 0.47
vt -0.163003 0.5
vt 0.163003 0.47
vt 0.163003 0.5
vt -0.1198059 -0.47
vt 0.1198059 -0.47
vt -0.5 0.6437871
vt -0.47 0.6437871
vt -0.5 0.6100281
vt -0.47 0.6100281
vt -0.1198059 0.48
vt -0.1198059 0.49
vt 0.1198059 0.48
vt 0.1198059 0.49
vt -0.163003 0.2261549
vt 0.1198059 0.269352
vt 0.163003 0.2261549
vt 0.163003 0.5285265
vt 0.1574488 0.5707148
vt 0.1157237 0.5595346
vt 0.103755 0.5884295
vt 0.1411647 0.6100281
vt 0.08471559 0.6132421
vt 0.1152605 0.6437871
vt 0.05990297 0.6322815
vt 0.03100805 0.6442502
vt 0.0815015 0.6696913
vt -6.110983E-09 0.6483325
vt -0.1198059 0.269352
vt -0.163003 0.5285265
vt -0.1157237 0.5595346
vt -0.1574488 0.5707148
vt -0.103755 0.5884295
vt -0.1411648 0.6100281
vt -0.0847156 0.6132421
vt -0.1152605 0.6437871
vt -0.05990298 0.6322815
vt -0.03100807 0.6442502
vt -0.08150151 0.6696913
vt 0.04218828 0.6859754
vt -0.04218829 0.6859754
vt -5.789139E-09 0.6915296
vt -6.409008E-09 0.6483325

usemtl metalLight

f 3/3/1 2/2/2 1/1/1
f 2/2/2 3/3/1 4/4/2
f 7/7/3 6/6/4 5/5/3
f 6/6/4 7/7/3 8/8/4
f 11/11/5 10/10/6 9/9/5
f 10/10/6 11/11/5 12/12/6
f 13/13/7 11/11/5 9/9/5
f 11/11/5 13/13/7 14/14/7
f 17/17/9 16/16/8 15/15/8
f 16/16/8 17/17/9 18/18/9
f 21/21/10 20/20/10 19/19/10
f 20/20/10 21/21/10 22/22/10
f 25/25/11 24/24/12 23/23/11
f 24/24/12 25/25/11 26/26/12
f 21/29/15 28/28/14 27/27/13
f 28/28/14 21/29/15 29/30/14
f 29/30/14 21/29/15 30/18/16
f 33/33/18 32/32/17 31/31/17
f 32/32/17 33/33/18 34/34/18
f 8/8/4 35/35/19 6/6/4
f 35/35/19 8/8/4 36/36/19
f 29/30/14 37/37/20 28/28/14
f 37/37/20 29/30/14 38/38/20
f 39/11/22 20/40/6 22/39/21
f 40/41/6 20/40/6 39/11/22
f 41/42/6 20/40/6 40/41/6
f 20/40/6 41/42/6 42/43/6
f 45/46/24 44/45/23 43/44/23
f 44/45/23 45/46/24 46/47/24
f 26/26/12 47/48/25 24/24/12
f 47/48/25 26/26/12 48/49/25
f 50/51/26 17/17/9 49/50/26
f 17/17/9 50/51/26 18/18/9
f 53/54/28 52/53/27 51/52/27
f 52/53/27 53/54/28 54/55/28
f 31/31/17 14/14/7 13/13/7
f 14/14/7 31/31/17 32/32/17
f 27/58/25 22/57/25 21/56/25
f 22/57/25 27/58/25 55/59/25
f 43/44/23 57/61/29 56/60/29
f 57/61/29 43/44/23 44/45/23
f 33/63/18 23/23/11 34/62/18
f 23/23/11 33/63/18 25/25/11
f 48/49/25 5/5/3 47/48/25
f 5/5/3 48/49/25 7/7/3
f 60/66/26 59/65/26 58/64/26
f 59/65/26 60/66/26 19/67/26
f 19/67/26 60/66/26 21/29/15
f 21/29/15 60/66/26 30/18/16
f 61/68/30 46/47/24 45/46/24
f 46/47/24 61/68/30 62/69/30
f 38/38/20 52/70/27 37/37/20
f 52/70/27 38/38/20 51/71/27
f 3/72/1 62/69/30 61/68/30
f 62/69/30 3/72/1 1/73/1
f 64/76/31 55/75/32 63/74/31
f 55/75/32 64/76/31 22/39/21
f 22/39/21 64/76/31 39/11/22
f 50/79/23 10/78/23 12/77/23
f 10/78/23 50/79/23 49/80/23
f 58/58/25 40/82/25 60/81/25
f 40/82/25 58/58/25 41/59/25
f 65/85/33 35/84/19 36/83/19
f 35/84/19 65/85/33 66/86/33
f 56/60/29 54/55/28 53/54/28
f 54/55/28 56/60/29 57/61/29
f 4/4/2 63/74/31 2/2/2
f 63/74/31 4/4/2 64/76/31
f 15/15/8 66/86/33 65/85/33
f 66/86/33 15/15/8 16/16/8
f 20/89/23 59/88/23 19/87/23
f 59/88/23 20/89/23 42/90/23
f 12/93/10 60/92/10 50/91/10
f 60/92/10 12/93/10 11/94/10
f 60/92/10 11/94/10 30/21/10
f 30/21/10 11/94/10 14/95/10
f 30/21/10 14/95/10 29/96/10
f 29/96/10 14/95/10 38/97/10
f 38/97/10 14/95/10 32/98/10
f 38/97/10 32/98/10 51/99/10
f 51/99/10 32/98/10 34/100/10
f 51/99/10 34/100/10 53/101/10
f 53/101/10 34/100/10 56/102/10
f 56/102/10 34/100/10 23/103/10
f 56/102/10 23/103/10 43/104/10
f 40/105/10 50/91/10 60/92/10
f 50/91/10 40/105/10 18/106/10
f 18/106/10 40/105/10 39/22/10
f 18/106/10 39/22/10 64/107/10
f 18/106/10 64/107/10 16/108/10
f 16/108/10 64/107/10 4/109/10
f 16/108/10 4/109/10 66/110/10
f 66/110/10 4/109/10 3/111/10
f 66/110/10 3/111/10 35/112/10
f 35/112/10 3/111/10 61/113/10
f 35/112/10 61/113/10 45/114/10
f 35/112/10 45/114/10 6/115/10
f 6/115/10 45/114/10 43/104/10
f 6/115/10 43/104/10 23/103/10
f 6/115/10 23/103/10 24/116/10
f 6/115/10 24/116/10 5/117/10
f 5/117/10 24/116/10 47/118/10

usemtl glass

f 59/19/10 41/105/10 58/92/10
f 41/105/10 59/19/10 42/20/10
f 28/96/10 55/22/10 27/21/10
f 55/22/10 28/96/10 63/107/10
f 63/107/10 28/96/10 37/97/10
f 63/107/10 37/97/10 2/109/10
f 2/109/10 37/97/10 52/99/10
f 2/109/10 52/99/10 1/111/10
f 1/111/10 52/99/10 54/101/10
f 1/111/10 54/101/10 62/113/10
f 62/113/10 54/101/10 57/102/10
f 62/113/10 57/102/10 46/114/10
f 46/114/10 57/102/10 44/119/10

